<svg width="20" height="20" viewBox="0 0 20 20" fill="none" xmlns="http://www.w3.org/2000/svg">
<g clip-path="url(#clip0_11132_279884)">
<path d="M8.46565 17.9421C6.84416 17.6312 5.39524 16.8367 4.27192 15.715C3.1486 14.5917 2.35576 13.1428 2.04481 11.5197H3.0558C3.3521 12.8676 4.03097 14.0724 4.97359 15.015C5.91457 15.956 7.11929 16.6348 8.46728 16.9328V17.9421H8.46565ZM15.6777 10.4956C15.4042 10.4956 15.1828 10.2742 15.1828 10.0007C15.1828 9.72723 15.4042 9.50582 15.6777 9.50582H19.5068C19.7803 9.50582 20.0017 9.72723 20.0017 10.0007C20.0017 10.2742 19.7803 10.4956 19.5068 10.4956H15.6777ZM10.4958 4.32389C10.4958 4.5974 10.2744 4.8188 10.0009 4.8188C9.72735 4.8188 9.50594 4.5974 9.50594 4.32389V0.493203C9.50594 0.219699 9.72735 -0.00170898 10.0009 -0.00170898C10.2744 -0.00170898 10.4958 0.219699 10.4958 0.493203V4.32389ZM10.4958 19.5083C10.4958 19.7818 10.2744 20.0032 10.0009 20.0032C9.72735 20.0032 9.50594 19.7818 9.50594 19.5083V15.6776C9.50594 15.0264 10.4958 15.0264 10.4958 15.6776V19.5083ZM0.493326 10.4956C0.219821 10.4956 -0.00158691 10.2742 -0.00158691 10.0007C-0.00158691 9.72723 0.219821 9.50582 0.493326 9.50582H4.32239C4.59589 9.50582 4.8173 9.72723 4.8173 10.0007C4.8173 10.2742 4.59589 10.4956 4.32239 10.4956H0.493326ZM9.99923 7.64013C11.3033 7.64013 12.3598 8.6967 12.3598 10.0007C12.3598 11.3048 11.3033 12.3613 9.99923 12.3613C8.6952 12.3613 7.63862 11.3048 7.63862 10.0007C7.64025 8.6967 8.69683 7.64013 9.99923 7.64013ZM2.04318 8.45088C2.35413 6.82939 3.1486 5.38046 4.27029 4.25714C5.39361 3.13382 6.84253 2.33936 8.46565 2.02841V3.04103C7.11766 3.33732 5.91294 4.0162 4.97033 4.95881C4.02934 5.8998 3.34884 7.10289 3.05417 8.45088H2.04318ZM11.5344 2.02678C13.1575 2.33773 14.6065 3.13219 15.7298 4.25552C16.8531 5.37721 17.6476 6.82939 17.9569 8.45088H16.9459C16.6496 7.10289 15.9707 5.89654 15.0281 4.95556C14.0871 4.01294 12.8824 3.33407 11.5344 3.03777V2.02678ZM17.9585 11.5197C17.6476 13.1411 16.8531 14.5917 15.7298 15.715C14.6065 16.8383 13.1575 17.6328 11.5344 17.9438V16.9328C14.2288 16.3402 16.3566 14.2156 16.9475 11.5197H17.9585Z" fill="#2F3233"/>
</g>
<defs>
<clipPath id="clip0_11132_279884">
<rect width="20" height="20.0016" fill="white"/>
</clipPath>
</defs>
</svg>
