<svg width="24" height="24" viewBox="0 0 24 24" fill="none" xmlns="http://www.w3.org/2000/svg">
<g clip-path="url(#clip0_11132_284812)">
<path d="M9.96076 7.14826C9.86531 7.25167 9.74994 7.33473 9.62159 7.39246C9.49324 7.45019 9.35455 7.4814 9.21384 7.48421C9.07313 7.48702 8.93331 7.46138 8.80275 7.40883C8.6722 7.35627 8.5536 7.27789 8.45409 7.17837C8.35457 7.07885 8.27619 6.96026 8.22363 6.82971C8.17107 6.69915 8.14543 6.55933 8.14825 6.41862C8.15106 6.27791 8.18227 6.13922 8.24 6.01087C8.29773 5.88252 8.38079 5.76715 8.4842 5.67169L11.8572 2.29083C12.8338 1.31427 14.201 0.923647 15.5565 1.01154C16.9732 1.09798 18.3129 1.68578 19.3358 2.66974C20.3197 3.69264 20.9075 5.03234 20.994 6.44904C21.0218 6.85865 21.0035 7.2701 20.9393 7.6756C20.3246 7.48814 19.6854 7.39335 19.0428 7.39435H18.8709C18.9177 7.1249 18.9321 6.85082 18.9139 6.57794C18.8624 5.66726 18.4885 4.80462 17.8592 4.14435C17.1998 3.51631 16.3387 3.14317 15.4295 3.09162C14.6346 3.04083 13.867 3.24591 13.3377 3.7674L9.96076 7.14826ZM12.451 8.08576C12.6465 7.88995 12.9119 7.77985 13.1886 7.77966C13.4653 7.77948 13.7308 7.88924 13.9266 8.08478C14.1224 8.28033 14.2325 8.54564 14.2327 8.82237C14.2329 9.0991 14.1231 9.36456 13.9276 9.56037L8.56037 14.9217C8.46491 15.0251 8.34955 15.1082 8.2212 15.1659C8.09285 15.2236 7.95416 15.2548 7.81345 15.2577C7.67274 15.2605 7.53292 15.2348 7.40236 15.1823C7.27181 15.1297 7.15321 15.0513 7.0537 14.9518C6.95418 14.8523 6.87579 14.7337 6.82324 14.6031C6.77068 14.4726 6.74504 14.3328 6.74786 14.1921C6.75067 14.0513 6.78187 13.9127 6.83961 13.7843C6.89734 13.656 6.9804 13.5406 7.08381 13.4451L12.4451 8.08576H12.451ZM11.0213 15.8983C11.1159 15.7924 11.2311 15.707 11.3599 15.6471C11.4886 15.5872 11.6282 15.5543 11.7701 15.5501C11.912 15.546 12.0533 15.5709 12.1852 15.6232C12.3172 15.6755 12.4372 15.7541 12.5378 15.8543C12.6384 15.9545 12.7175 16.0741 12.7703 16.2059C12.8231 16.3377 12.8485 16.4788 12.845 16.6208C12.8414 16.7627 12.809 16.9024 12.7496 17.0314C12.6903 17.1604 12.6053 17.2759 12.4998 17.3709L9.14826 20.7147C8.1717 21.6912 6.80451 22.0819 5.44905 21.994C4.03235 21.9075 2.69265 21.3197 1.66975 20.3358C0.685789 19.3129 0.0979848 17.9732 0.0115451 16.5565C-0.0743924 15.1893 0.316233 13.8338 1.29084 12.8572L4.63459 9.51349C4.83292 9.33042 5.09438 9.23119 5.36423 9.23658C5.63408 9.24198 5.89137 9.35158 6.08222 9.54242C6.27307 9.73327 6.38267 9.99057 6.38806 10.2604C6.39346 10.5303 6.29423 10.7917 6.11116 10.9901L2.7674 14.3338C2.24592 14.8553 2.04084 15.6307 2.09162 16.4295C2.1428 17.3403 2.51671 18.203 3.14631 18.8631C3.80658 19.4924 4.66922 19.8663 5.5799 19.9178C6.37483 19.9686 7.1424 19.7635 7.6717 19.242L11.0155 15.8944L11.0213 15.8983Z" fill="#124443"/>
<path fill-rule="evenodd" clip-rule="evenodd" d="M19.0449 8.91211C20.0254 8.91211 20.9839 9.20288 21.7991 9.74766C22.6143 10.2924 23.2497 11.0667 23.6248 11.9726C23.9999 12.8785 24.098 13.8753 23.9066 14.8369C23.7151 15.7986 23.2428 16.6818 22.5494 17.375C21.8559 18.0682 20.9725 18.5401 20.0108 18.7312C19.0491 18.9222 18.0523 18.8238 17.1466 18.4483C16.2409 18.0728 15.4668 17.4371 14.9224 16.6217C14.3779 15.8063 14.0875 14.8477 14.0879 13.8672C14.0879 13.2163 14.2161 12.5718 14.4653 11.9705C14.7144 11.3692 15.0796 10.8229 15.5399 10.3627C16.0002 9.90258 16.5467 9.53763 17.1481 9.28873C17.7495 9.03983 18.394 8.91185 19.0449 8.91211ZM17.5059 13.0801L18.3848 13.9102L20.4609 11.8066C20.6328 11.6309 20.7402 11.4922 20.9531 11.709L21.6406 12.4141C21.8672 12.6387 21.8555 12.7695 21.6406 12.9766L18.7773 15.7949C18.3281 16.2363 18.4063 16.2637 17.9512 15.8105L16.3477 14.2168C16.3252 14.1971 16.3076 14.1725 16.2961 14.1449C16.2847 14.1173 16.2797 14.0875 16.2816 14.0577C16.2835 14.0279 16.2922 13.9989 16.307 13.973C16.3219 13.9471 16.3424 13.9249 16.3672 13.9082L17.166 13.0801C17.2871 12.9512 17.3828 12.9629 17.5059 13.0801Z" fill="#124443"/>
</g>
<defs>
<clipPath id="clip0_11132_284812">
<rect width="24" height="21.0059" fill="white" transform="translate(0 1)"/>
</clipPath>
</defs>
</svg>
