<svg width="24" height="24" viewBox="0 0 24 24" fill="none" xmlns="http://www.w3.org/2000/svg">
<path d="M17.75 22C19.1424 22 20.4777 21.4469 21.4623 20.4623C22.4469 19.4777 23 18.1424 23 16.75C23 15.3576 22.4469 14.0223 21.4623 13.0377C20.4777 12.0531 19.1424 11.5 17.75 11.5C16.3576 11.5 15.0223 12.0531 14.0377 13.0377C13.0531 14.0223 12.5 15.3576 12.5 16.75C12.5 18.1424 13.0531 19.4777 14.0377 20.4623C15.0223 21.4469 16.3576 22 17.75 22ZM18.5 14.5V16H20C20.1989 16 20.3897 16.079 20.5303 16.2197C20.671 16.3603 20.75 16.5511 20.75 16.75C20.75 16.9489 20.671 17.1397 20.5303 17.2803C20.3897 17.421 20.1989 17.5 20 17.5H18.5V19C18.5 19.1989 18.421 19.3897 18.2803 19.5303C18.1397 19.671 17.9489 19.75 17.75 19.75C17.5511 19.75 17.3603 19.671 17.2197 19.5303C17.079 19.3897 17 19.1989 17 19V17.5H15.5C15.3011 17.5 15.1103 17.421 14.9697 17.2803C14.829 17.1397 14.75 16.9489 14.75 16.75C14.75 16.5511 14.829 16.3603 14.9697 16.2197C15.1103 16.079 15.3011 16 15.5 16H17V14.5C17 14.3011 17.079 14.1103 17.2197 13.9697C17.3603 13.829 17.5511 13.75 17.75 13.75C17.9489 13.75 18.1397 13.829 18.2803 13.9697C18.421 14.1103 18.5 14.3011 18.5 14.5ZM15.5 5.5C15.5 6.69347 15.0259 7.83807 14.182 8.68198C13.3381 9.52589 12.1935 10 11 10C9.80653 10 8.66193 9.52589 7.81802 8.68198C6.97411 7.83807 6.5 6.69347 6.5 5.5C6.5 4.30653 6.97411 3.16193 7.81802 2.31802C8.66193 1.47411 9.80653 1 11 1C12.1935 1 13.3381 1.47411 14.182 2.31802C15.0259 3.16193 15.5 4.30653 15.5 5.5ZM11 8.5C11.7956 8.5 12.5587 8.18393 13.1213 7.62132C13.6839 7.05871 14 6.29565 14 5.5C14 4.70435 13.6839 3.94129 13.1213 3.37868C12.5587 2.81607 11.7956 2.5 11 2.5C10.2044 2.5 9.44129 2.81607 8.87868 3.37868C8.31607 3.94129 8 4.70435 8 5.5C8 6.29565 8.31607 7.05871 8.87868 7.62132C9.44129 8.18393 10.2044 8.5 11 8.5Z" fill="#464C4C"/>
<path d="M11.384 19C11.2119 18.5129 11.0967 18.0075 11.0405 17.494H3.5C3.5015 17.125 3.731 16.015 4.748 14.998C5.726 14.02 7.5665 13 11 13C11.39 13 11.7605 13.0135 12.11 13.0375C12.449 12.526 12.854 12.0625 13.316 11.6605C12.6155 11.557 11.846 11.5 11 11.5C3.5 11.5 2 16 2 17.5C2 19 3.5 19 3.5 19H11.384Z" fill="#464C4C"/>
</svg>
