<svg width="32" height="32" viewBox="0 0 32 32" fill="none" xmlns="http://www.w3.org/2000/svg">
<g clip-path="url(#clip0_11133_297834)">
<path d="M22.7375 0H3.42949C1.53843 0 0 1.53843 0 3.42956V28.5704C0 30.4614 1.53843 31.9999 3.42949 31.9999H6.89217C7.20924 31.9999 7.4663 31.7428 7.4663 31.4258C7.4663 31.1087 7.20924 30.8516 6.89217 30.8516H3.42949C2.17162 30.8516 1.14825 29.8283 1.14825 28.5704V3.42956C1.14825 2.17168 2.17156 1.14825 3.42949 1.14825H22.7375C23.0546 1.14825 23.3116 0.891186 23.3116 0.574124C23.3116 0.257062 23.0547 0 22.7375 0Z" fill="#002120"/>
<path d="M28.5704 3.98935e-05H25.0341C24.717 3.98935e-05 24.46 0.257102 24.46 0.574164C24.46 0.891226 24.717 1.14823 25.0341 1.14823H28.5704C29.8284 1.14823 30.8517 2.17166 30.8517 3.42947V28.5703C30.8517 29.8282 29.8284 30.8515 28.5704 30.8515H9.1888C8.87173 30.8515 8.61467 31.1086 8.61467 31.4257C8.61467 31.7427 8.87173 31.9998 9.1888 31.9998H28.5704C30.4615 31.9998 32 30.4614 32 28.5703V3.42953C32 1.53847 30.4615 3.98935e-05 28.5704 3.98935e-05Z" fill="#002120"/>
<path d="M20.0178 15.9999L23.3927 12.625C23.6169 12.4008 23.6169 12.0373 23.3927 11.8131L20.1867 8.60727C19.9626 8.38302 19.599 8.38302 19.3748 8.60727L16 11.982L12.6251 8.60727C12.4009 8.38302 12.0374 8.38302 11.8132 8.60727L8.60736 11.8131C8.38311 12.0374 8.38311 12.4009 8.60736 12.625L11.9821 15.9999L8.60723 19.3748C8.38298 19.599 8.38298 19.9624 8.60723 20.1866L11.8131 23.3925C11.9207 23.5002 12.0668 23.5607 12.219 23.5607C12.3713 23.5607 12.5174 23.5002 12.625 23.3925L15.9998 20.0176L19.3747 23.3925C19.4823 23.5002 19.6284 23.5607 19.7806 23.5607C19.9329 23.5607 20.079 23.5002 20.1866 23.3925L23.3926 20.1866C23.6168 19.9624 23.6168 19.5989 23.3926 19.3748L20.0178 15.9999ZM19.7807 22.1746L16.4058 18.7998C16.2938 18.6876 16.1468 18.6316 15.9999 18.6316C15.853 18.6316 15.706 18.6876 15.594 18.7998L12.2191 22.1746L9.82511 19.7806L13.2 16.4059C13.3077 16.2982 13.3682 16.1522 13.3682 15.9999C13.3682 15.8477 13.3077 15.7017 13.2 15.594L9.82511 12.2191L12.2191 9.82515L15.594 13.2C15.8182 13.4243 16.1817 13.4243 16.4058 13.2L19.7807 9.82515L22.1747 12.2191L18.7998 15.594C18.6922 15.7017 18.6317 15.8477 18.6317 15.9999C18.6317 16.1522 18.6922 16.2982 18.7998 16.4059L22.1747 19.7806L19.7807 22.1746Z" fill="#002120"/>
</g>
<defs>
<clipPath id="clip0_11133_297834">
<rect width="32" height="32" fill="white"/>
</clipPath>
</defs>
</svg>
