<svg width="32" height="32" viewBox="0 0 32 32" fill="none" xmlns="http://www.w3.org/2000/svg">
<g clip-path="url(#clip0_11133_297845)">
<path d="M13.2067 21.2712C12.965 18.9632 11.0413 17.1508 8.73662 17.1508C7.29513 17.1508 5.93569 17.8735 5.09552 19.0626C4.93142 19.034 4.76507 19.0199 4.59872 19.0199C3.29492 19.0199 2.13667 19.9062 1.75171 21.1628C0.67944 21.7978 0 22.9836 0 24.2548C0 26.2251 1.56513 27.8279 3.4888 27.8279H9.54363C9.57904 27.8279 9.61332 27.8257 9.64029 27.8234C9.67514 27.8257 9.70998 27.8279 9.74595 27.8279H12.1681C13.9805 27.8279 15.4552 26.3179 15.4552 24.4622C15.4546 23.0016 14.5318 21.7236 13.2067 21.2712ZM12.1675 26.7045L9.72234 26.7028L9.61782 26.6994L3.4888 26.7045C2.185 26.7045 1.12397 25.6053 1.12397 24.2548C1.12397 23.3185 1.65673 22.4508 2.48229 22.0434L2.72675 21.9231L2.78407 21.6562C2.97009 20.7795 3.73327 20.1433 4.59872 20.1433C4.79205 20.1433 4.98481 20.1754 5.17139 20.2383L5.60805 20.385L5.8379 19.9854C6.45384 18.9143 7.53678 18.2742 8.73662 18.2742C10.5715 18.2742 12.0832 19.8179 12.108 21.7152L12.1142 22.1721L12.5632 22.2592C13.5871 22.4581 14.3312 23.3843 14.3312 24.4616C14.3306 25.6986 13.3601 26.7045 12.1675 26.7045Z" fill="#002120"/>
<path d="M31.6746 23.8406C30.5461 21.7073 26.6274 19.3942 26.4549 19.293C25.7372 18.8839 24.9937 18.7575 24.3637 18.93C23.8889 19.0615 23.5028 19.3616 23.2426 19.7988C22.6694 20.4845 21.9584 21.2858 21.7859 21.41C20.4535 22.3115 19.3964 22.2047 18.2482 21.0566L11.7933 14.601C10.644 13.4518 10.5383 12.3936 11.4386 11.065C11.5645 10.8908 12.3654 10.1799 13.051 9.60667C13.4882 9.34647 13.7883 8.96039 13.9198 8.48551C14.0923 7.86395 13.9597 7.10134 13.5528 6.38818C13.4556 6.22183 11.1425 2.30311 9.00918 1.17521C7.92512 0.601419 6.61794 0.798114 5.75192 1.66526L4.32616 3.09101C0.936267 6.48035 0.824994 10.6227 4.00414 15.0692C4.18454 15.3209 4.53466 15.3799 4.78868 15.199C5.04101 15.0191 5.09889 14.6679 4.91849 14.415C2.02146 10.3631 2.08778 6.91869 5.12081 3.88566L6.54657 2.4599C7.06078 1.94569 7.83969 1.82767 8.48317 2.16823C10.3343 3.14777 12.5609 6.91869 12.5795 6.95073C12.8318 7.39357 12.9279 7.85496 12.8363 8.18541C12.7801 8.38772 12.6548 8.54115 12.4525 8.65467L12.3676 8.71311C11.8882 9.11325 10.7474 10.081 10.5086 10.4339C10.1646 10.9419 9.93646 11.4416 9.81676 11.9322C9.41719 11.1353 9.09404 10.2119 8.98783 9.18911C8.95523 8.88115 8.68267 8.6586 8.37021 8.68782C8.06168 8.72042 7.83745 8.99635 7.86892 9.30545C8.27467 13.2129 11.3139 15.7565 11.4426 15.8627C11.4572 15.8745 11.4741 15.879 11.4892 15.8891L17.4519 21.8518C17.4766 21.8765 17.5019 21.8984 17.5272 21.9226C17.5474 21.9518 17.5604 21.985 17.5868 22.0108C17.693 22.1159 20.2303 24.5774 24.1052 24.9798C24.1249 24.9815 24.1446 24.9826 24.1637 24.9826C24.448 24.9826 24.6919 24.7673 24.7223 24.479C24.7543 24.17 24.5295 23.894 24.221 23.8614C23.0324 23.7384 21.9798 23.3899 21.1025 22.9853C21.533 22.8566 21.9702 22.6419 22.4142 22.3413C22.7671 22.1024 23.7349 20.9616 24.135 20.4822L24.1935 20.3973C24.307 20.1956 24.4604 20.0697 24.6627 20.0135C24.992 19.9219 25.454 20.018 25.8912 20.2664C26.9472 20.8857 29.8661 22.8285 30.6799 24.3666C31.0199 25.0101 30.903 25.7879 30.3882 26.3027L28.9625 27.7284C25.9317 30.7592 22.3361 30.789 18.2758 27.8178C18.0246 27.634 17.6733 27.6891 17.4907 27.9392C17.3075 28.1898 17.362 28.5411 17.6121 28.7243C19.8235 30.3428 21.9579 31.1504 23.9659 31.1504C26.0553 31.1504 28.006 30.2737 29.7577 28.5225L31.1834 27.0968C32.0506 26.2313 32.2478 24.9225 31.6746 23.8406Z" fill="#002120"/>
<path d="M25.4958 15.0749C25.1051 14.6647 24.4532 14.6485 24.0426 15.0395C23.9533 15.1245 23.8864 15.2233 23.8342 15.328L22.3487 15.1264L16.9709 20.2984L17.2456 20.5869L22.4854 15.5464L23.7298 15.7151C23.7113 15.9922 23.8009 16.2762 24.0071 16.4927C24.3978 16.9029 25.0498 16.9192 25.4603 16.5282C25.8709 16.1371 25.8865 15.4851 25.4958 15.0749ZM24.2952 16.2183C24.0555 15.9666 24.0657 15.567 24.317 15.3276C24.5683 15.0883 24.9679 15.0976 25.2077 15.3493C25.4474 15.6011 25.4373 16.0007 25.1859 16.24C24.9346 16.4794 24.535 16.47 24.2952 16.2183Z" fill="#002120"/>
<path d="M17.7886 6.74528C18.1797 7.15593 18.1645 7.80831 17.754 8.19935C17.6647 8.28434 17.5627 8.34633 17.4556 8.39333L17.5854 9.88788L12.1573 15.0071L11.8822 14.7182L17.1723 9.73051L17.0637 8.47858C16.7859 8.48338 16.5063 8.3798 16.2999 8.16306C15.9088 7.75241 15.924 7.10002 16.3346 6.70899C16.7452 6.31795 17.3975 6.33463 17.7886 6.74528ZM16.5881 7.88865C16.8281 8.14065 17.2279 8.15024 17.4792 7.91089C17.7306 7.67154 17.7405 7.27168 17.5005 7.01969C17.2605 6.76769 16.8606 6.7581 16.6093 6.99745C16.358 7.23679 16.3481 7.63665 16.5881 7.88865Z" fill="#002120"/>
<path d="M23.0262 12.4091C23.3795 12.0425 23.3687 11.4559 23.002 11.1026C22.6353 10.7493 22.0491 10.7598 21.6955 11.1268C21.3845 11.4495 21.3561 11.9416 21.6037 12.296L15.1796 18.5303L15.4375 18.7788L21.8616 12.5446C22.2246 12.7785 22.7153 12.7318 23.0262 12.4091ZM21.9679 12.1758C21.7429 11.959 21.7366 11.5997 21.953 11.375C22.1695 11.1504 22.5288 11.1434 22.7538 11.3602C22.9788 11.577 22.9851 11.9363 22.7687 12.1609C22.5522 12.3856 22.1929 12.3926 21.9679 12.1758Z" fill="#002120"/>
<path d="M21.0726 10.2394C21.4259 9.87273 21.4151 9.28619 21.0484 8.93287C20.6817 8.57955 20.0955 8.59007 19.7419 8.9571C19.4309 9.27978 19.4025 9.77182 19.6501 10.1263L13.226 16.3605L13.4839 16.609L19.908 10.3748C20.271 10.6088 20.7617 10.5621 21.0726 10.2394ZM20.0143 10.0061C19.7893 9.78925 19.7829 9.42994 19.9994 9.20529C20.2159 8.98064 20.5752 8.97362 20.8002 9.19044C21.0252 9.40726 21.0315 9.76656 20.815 9.99121C20.5986 10.2159 20.2393 10.2229 20.0143 10.0061Z" fill="#002120"/>
</g>
<defs>
<clipPath id="clip0_11133_297845">
<rect width="32" height="32" fill="white"/>
</clipPath>
</defs>
</svg>
