<svg width="28" height="28" viewBox="0 0 28 28" fill="none" xmlns="http://www.w3.org/2000/svg">
<g clip-path="url(#clip0_11132_87745)">
<path fill-rule="evenodd" clip-rule="evenodd" d="M22.2 4H5.8C4.80589 4 4 4.80589 4 5.8V22.2C4 23.1941 4.80589 24 5.8 24H22.2C23.1941 24 24 23.1941 24 22.2V5.8C24 4.80589 23.1941 4 22.2 4ZM5.8 2.8C4.14315 2.8 2.8 4.14314 2.8 5.8V22.2C2.8 23.8569 4.14314 25.2 5.8 25.2H22.2C23.8569 25.2 25.2 23.8569 25.2 22.2V5.8C25.2 4.14315 23.8569 2.8 22.2 2.8H5.8Z" fill="#267FE5"/>
<path d="M14.9799 19.6L14 16.8001H10.2541L9.47015 19.6L7.7 19.6001L11.2 9.03342H12.8928L16.8 19.6001L14.9799 19.6ZM13.6487 15.2236C12.9239 12.9539 12.5147 11.6703 12.421 11.3728C12.3323 11.0752 12.2682 10.8401 12.2287 10.6674C12.066 11.2816 11.6001 12.8003 10.831 15.2236H13.6487Z" fill="#267FE5"/>
<path d="M19.8928 19.6H18.2V11.5527H19.8928V19.6Z" fill="#267FE5"/>
<path d="M19.88 9.94C19.88 10.4039 19.5039 10.78 19.04 10.78C18.5761 10.78 18.2 10.4039 18.2 9.94C18.2 9.47608 18.5761 9.1 19.04 9.1C19.5039 9.1 19.88 9.47608 19.88 9.94Z" fill="#267FE5"/>
<path d="M19.6602 26.1534C19.5531 26.1101 19.4368 26.085 19.3138 26.085C19.1908 26.085 19.0745 26.1101 18.9674 26.1534C18.8604 26.199 18.7624 26.2628 18.6826 26.3448L18.6758 26.3494C18.6302 26.3949 18.5869 26.4473 18.5527 26.5043C18.5345 26.5339 18.5163 26.5658 18.5003 26.6H17.0625V24.8819C16.8415 24.9844 16.6113 25.0619 16.3766 25.1098C16.3356 25.1189 16.2969 25.1257 16.2559 25.1326V27.001C16.2559 27.1127 16.3014 27.213 16.3743 27.2859C16.4473 27.3588 16.5475 27.4044 16.6592 27.4044H18.514C18.5277 27.4317 18.5436 27.4591 18.5618 27.4864C18.5937 27.5342 18.6302 27.5798 18.6712 27.6208L18.6781 27.6277C18.7601 27.7097 18.8604 27.7781 18.972 27.8236C19.0791 27.8669 19.1953 27.892 19.3184 27.892C19.4368 27.892 19.5531 27.8692 19.6579 27.8259L19.6647 27.8236C19.7764 27.7781 19.8743 27.7097 19.9587 27.6277C20.0407 27.5456 20.109 27.4454 20.1546 27.3337C20.1979 27.2266 20.223 27.1104 20.223 26.9874C20.223 26.8666 20.1979 26.7504 20.1546 26.641C20.109 26.5294 20.0407 26.4291 19.9587 26.3471C19.8721 26.2673 19.7718 26.199 19.6602 26.1534ZM26.1479 15.3262L24.0867 15.3699C24.1277 15.2811 24.0548 15.1484 24.0867 15.0573C24.1505 14.8796 24.196 14.6995 24.2234 14.5195H26.1479C26.1639 14.4899 26.1798 14.4603 26.198 14.4307C26.2322 14.376 26.2732 14.3258 26.3165 14.2826C26.4008 14.1982 26.4988 14.1322 26.6105 14.0866C26.7176 14.0433 26.8338 14.0182 26.9568 14.0182C27.0753 14.0182 27.1893 14.041 27.2964 14.0843L27.3032 14.0866C27.4148 14.1322 27.5128 14.2005 27.5971 14.2826C27.6792 14.3646 27.7475 14.4648 27.7931 14.5765C27.8364 14.6836 27.8615 14.7998 27.8615 14.9229C27.8615 15.0436 27.8364 15.1598 27.7931 15.2692C27.7475 15.3809 27.6792 15.4811 27.5971 15.5632C27.5151 15.6452 27.4148 15.7135 27.3032 15.7591C27.1961 15.8024 27.0799 15.8275 26.9568 15.8275C26.8383 15.8275 26.7244 15.8047 26.6173 15.7614L26.6105 15.7591C26.4988 15.7135 26.4008 15.6452 26.3165 15.5632C26.2732 15.5199 26.2345 15.472 26.2003 15.4196L26.1958 15.4128C26.1798 15.3854 26.1639 15.3558 26.1479 15.3262ZM26.9135 13.1204H24.8409C24.7634 12.8652 24.654 12.6169 24.5173 12.3799L24.5128 12.373C24.5014 12.3525 24.49 12.3343 24.4786 12.3138H26.5125V9.68197C26.4897 9.66829 26.4669 9.65462 26.4441 9.63867C26.3986 9.60677 26.3576 9.57259 26.3188 9.53385C26.2368 9.45182 26.1684 9.35156 26.1229 9.23991C26.0796 9.13281 26.0545 9.0166 26.0545 8.89356C26.0545 8.77279 26.0796 8.6543 26.1229 8.5472C26.1684 8.43555 26.2368 8.33757 26.3188 8.25326C26.4008 8.17122 26.5011 8.10286 26.6128 8.05729C26.7199 8.014 26.8361 7.98893 26.9591 7.98893C27.0799 7.98893 27.1961 8.014 27.3055 8.05729C27.4171 8.10286 27.5174 8.17122 27.5994 8.25326C27.6814 8.33529 27.7498 8.43555 27.7954 8.5472C27.8387 8.6543 27.8637 8.77051 27.8637 8.89356C27.8637 9.01205 27.841 9.12598 27.7977 9.23307L27.7954 9.23991C27.7498 9.35156 27.6814 9.44954 27.5994 9.53385C27.5493 9.58398 27.49 9.62956 27.4285 9.66829C27.3943 9.6888 27.3556 9.70931 27.3191 9.72526V12.7148C27.3191 12.8265 27.2736 12.9268 27.2007 12.9997C27.1255 13.0749 27.0252 13.1204 26.9135 13.1204ZM8.26009 1.84661C8.36719 1.88991 8.4834 1.91497 8.60645 1.91497C8.72949 1.91497 8.8457 1.88991 8.9528 1.84661C9.0599 1.80104 9.15788 1.73724 9.23763 1.65521L9.24447 1.65065C9.29004 1.60508 9.33333 1.55267 9.36751 1.4957C9.38574 1.46608 9.40397 1.43418 9.41992 1.4H10.8577V3.80853C11.1107 3.67409 11.3841 3.57611 11.6644 3.51914V0.99668C11.6644 0.885026 11.6188 0.784766 11.5459 0.711849C11.473 0.638932 11.3727 0.593359 11.2611 0.593359H9.40625C9.39258 0.566016 9.37663 0.538672 9.3584 0.511328C9.3265 0.463477 9.29004 0.417904 9.24902 0.376888L9.24219 0.370052C9.16016 0.288021 9.0599 0.219662 8.94824 0.174089C8.84115 0.130795 8.72493 0.105729 8.60189 0.105729C8.4834 0.105729 8.36719 0.128516 8.26237 0.17181L8.25553 0.174089C8.14388 0.219662 8.0459 0.288021 7.96159 0.370052C7.87956 0.452084 7.8112 0.552344 7.76562 0.663998C7.72233 0.771094 7.69727 0.887305 7.69727 1.01035C7.69727 1.13112 7.72233 1.24733 7.76562 1.35671C7.8112 1.46836 7.87956 1.56862 7.96159 1.65065C8.05046 1.73268 8.14844 1.80104 8.26009 1.84661ZM12.8766 1.71582L12.8333 3.26667L13.6536 3.80671L13.681 3.82721C13.681 3.82038 13.6833 3.81354 13.6833 3.80671V1.71582C13.7129 1.69987 13.7425 1.68392 13.7721 1.66569C13.8268 1.63151 13.877 1.59049 13.9202 1.5472C14.0023 1.46289 14.0706 1.36491 14.1162 1.25326C14.1595 1.14616 14.1846 1.02995 14.1846 0.906901C14.1846 0.788412 14.1618 0.674479 14.1185 0.567383L14.1162 0.560547C14.0706 0.448893 14.0023 0.350911 13.9202 0.266602C13.8382 0.18457 13.738 0.116211 13.6263 0.070638C13.5192 0.0273437 13.403 0.00227865 13.2799 0.00227865C13.1592 0.00227865 13.043 0.0273437 12.9336 0.070638C12.8219 0.116211 12.7217 0.18457 12.6396 0.266602C12.5576 0.348633 12.4893 0.448893 12.4437 0.560547C12.4004 0.667643 12.3753 0.783854 12.3753 0.906901C12.3753 1.02539 12.3981 1.13932 12.4414 1.24642L12.4437 1.25326C12.4893 1.36491 12.5576 1.46289 12.6396 1.5472C12.6829 1.59049 12.7308 1.62923 12.7832 1.66341L12.7878 1.66569C12.8174 1.68392 12.8447 1.69987 12.8766 1.71582ZM15.0801 0.950195V3.85L15.4242 3.80671L15.8867 3.85V1.35124H18.5186C18.5322 1.37402 18.5459 1.39681 18.5618 1.4196C18.5937 1.46517 18.6279 1.50619 18.6667 1.54492C18.7487 1.62695 18.849 1.69531 18.9606 1.74089C19.0677 1.78418 19.1839 1.80924 19.307 1.80924C19.4277 1.80924 19.5462 1.78418 19.6533 1.74089C19.765 1.69531 19.8652 1.62695 19.9473 1.54492C20.0293 1.46289 20.0977 1.36263 20.1432 1.25098C20.1865 1.14388 20.2116 1.02767 20.2116 0.904622C20.2116 0.783854 20.1865 0.667643 20.1432 0.558268C20.0977 0.446615 20.0293 0.346354 19.9473 0.264323C19.8607 0.182292 19.7604 0.113932 19.6488 0.0683594C19.5417 0.0250651 19.4255 0 19.3047 0C19.1862 0 19.0723 0.0227865 18.9652 0.0660807L18.9583 0.0683594C18.8467 0.113932 18.7487 0.182292 18.6644 0.264323C18.6143 0.314453 18.5687 0.373698 18.5299 0.435221C18.5094 0.469401 18.4889 0.508138 18.473 0.544596H15.4834C15.3717 0.544596 15.2715 0.590169 15.1986 0.663086C15.1256 0.738281 15.0801 0.838542 15.0801 0.950195ZM1.71582 12.6351H3.26667C3.23021 12.7171 3.19831 12.8014 3.16868 12.8835C3.10488 13.068 3.84481 13.2526 3.81746 13.4395H1.71582C1.69987 13.4691 1.68392 13.4987 1.66569 13.5283C1.63151 13.583 1.59049 13.6331 1.5472 13.6764C1.46289 13.7607 1.36491 13.8268 1.25326 13.8724C1.14616 13.9157 1.02995 13.9408 0.906901 13.9408C0.788411 13.9408 0.674479 13.918 0.567383 13.8747L0.560547 13.8724C0.448893 13.8268 0.350911 13.7585 0.266602 13.6764C0.18457 13.5944 0.116211 13.4941 0.070638 13.3825C0.0273437 13.2754 0.00227865 13.1592 0.00227865 13.0361C0.00227865 12.9154 0.0273437 12.7992 0.070638 12.6898C0.116211 12.5781 0.18457 12.4779 0.266602 12.3958C0.348633 12.3138 0.448893 12.2454 0.560547 12.1999C0.667643 12.1566 0.783854 12.1315 0.906901 12.1315C1.02539 12.1315 1.13932 12.1543 1.24642 12.1976L1.25326 12.1999C1.36491 12.2454 1.46289 12.3138 1.5472 12.3958C1.59049 12.4391 1.62923 12.487 1.66341 12.5394L1.66797 12.5462C1.68392 12.5758 1.69987 12.6055 1.71582 12.6351ZM0.950195 14.8408H3.92747C4.01406 15.1165 2.97272 15.3831 3.13223 15.6361V15.6383L3.13678 15.6475H1.35124V18.2793C1.37402 18.293 1.39681 18.3066 1.4196 18.3226C1.46517 18.3545 1.50618 18.3887 1.54492 18.4274C1.62695 18.5094 1.69531 18.6097 1.74089 18.7214C1.78418 18.8285 1.80924 18.9447 1.80924 19.0677C1.80924 19.1885 1.78418 19.307 1.74089 19.4141C1.69531 19.5257 1.62695 19.6237 1.54492 19.708C1.46289 19.79 1.36263 19.8584 1.25098 19.904C1.14388 19.9473 1.02767 19.9723 0.904622 19.9723C0.783854 19.9723 0.667643 19.9473 0.558268 19.904C0.446615 19.8584 0.346354 19.79 0.264323 19.708C0.182292 19.6191 0.113932 19.5189 0.0683594 19.4095C0.0250651 19.3024 0 19.1862 0 19.0632C0 18.9447 0.0227865 18.8307 0.0660807 18.7236L0.0683594 18.7168C0.113932 18.6051 0.182292 18.5072 0.264323 18.4229C0.314453 18.3727 0.373698 18.3271 0.435221 18.2884C0.469401 18.2679 0.508138 18.2474 0.544596 18.2314V15.2419C0.544596 15.1302 0.590169 15.0299 0.663086 14.957C0.738281 14.8864 0.838542 14.8408 0.950195 14.8408ZM15.0459 26.2842V24.15C14.7611 24.0611 14.4922 25.0842 14.2461 24.8814L14.2415 24.8769V26.2865C14.2119 26.3024 14.1823 26.3184 14.1527 26.3366C14.098 26.3708 14.0479 26.4118 14.0046 26.4551C13.9225 26.5394 13.8542 26.6374 13.8086 26.749C13.7653 26.8561 13.7402 26.9723 13.7402 27.0954C13.7402 27.2139 13.763 27.3278 13.8063 27.4349L13.8086 27.4417C13.8542 27.5534 13.9225 27.6514 14.0046 27.7357C14.0866 27.8177 14.1868 27.8861 14.2985 27.9316C14.4056 27.9749 14.5218 28 14.6449 28C14.7656 28 14.8818 27.9749 14.9912 27.9316C15.1029 27.8861 15.2031 27.8177 15.2852 27.7357C15.3672 27.6536 15.4355 27.5534 15.4811 27.4417C15.5244 27.3346 15.5495 27.2184 15.5495 27.0954C15.5495 26.9769 15.5267 26.863 15.4834 26.7559L15.4811 26.749C15.4355 26.6374 15.3672 26.5394 15.2852 26.4551C15.2419 26.4118 15.194 26.373 15.1416 26.3389L15.1348 26.3343C15.1051 26.3161 15.0755 26.3001 15.0459 26.2842ZM12.8402 27.0498V24.7538C12.7445 24.8518 12.6048 23.9202 12.5 24C12.3382 24.123 12.209 24.0725 12.0335 24.15V26.651H9.40169C9.38802 26.6283 9.37435 26.6055 9.3584 26.5827C9.3265 26.5371 9.29232 26.4961 9.25358 26.4574C9.17155 26.3753 9.07129 26.307 8.95963 26.2614C8.85254 26.2181 8.73633 26.193 8.61328 26.193C8.49251 26.193 8.37402 26.2181 8.26693 26.2614C8.15527 26.307 8.05729 26.3753 7.97298 26.4574C7.89095 26.5394 7.82259 26.6397 7.77702 26.7513C7.73372 26.8584 7.70866 26.9746 7.70866 27.0977C7.70866 27.2184 7.73372 27.3346 7.77702 27.444C7.82259 27.5557 7.89095 27.6559 7.97298 27.738C8.05501 27.82 8.15527 27.8883 8.26693 27.9339C8.37402 27.9772 8.49023 28.0023 8.61328 28.0023C8.73177 28.0023 8.8457 27.9795 8.9528 27.9362L8.95963 27.9339C9.07129 27.8883 9.16927 27.82 9.25358 27.738C9.30371 27.6878 9.34928 27.6286 9.38802 27.5671C9.40853 27.5329 9.42904 27.4941 9.44499 27.4577H12.4346C12.5462 27.4577 12.6465 27.4121 12.7194 27.3392C12.7946 27.2617 12.8402 27.1615 12.8402 27.0498Z" fill="#267FE5"/>
</g>
<defs>
<clipPath id="clip0_11132_87745">
<rect width="28" height="28" fill="white"/>
</clipPath>
</defs>
</svg>
