<svg width="24" height="24" viewBox="0 0 24 24" fill="none" xmlns="http://www.w3.org/2000/svg">
<g clip-path="url(#clip0_11132_117560)">
<path d="M11.0626 19.7068L4.2825 12.9267C4.17978 12.824 4.10684 12.7127 4.06369 12.5929C4.02123 12.473 4 12.3446 4 12.2076C4 12.0707 4.02123 11.9423 4.06369 11.8224C4.10684 11.7026 4.17978 11.5913 4.2825 11.4885L11.0626 4.70844C11.2509 4.52011 11.4862 4.42149 11.7683 4.41258C12.0512 4.40437 12.2953 4.50298 12.5008 4.70844C12.7063 4.89678 12.8134 5.13203 12.8223 5.41419C12.8306 5.69703 12.7319 5.94119 12.5265 6.14664L7.49278 11.1804H18.9727C19.2638 11.1804 19.5079 11.2786 19.7052 11.4752C19.9017 11.6724 20 11.9166 20 12.2076C20 12.4987 19.9017 12.7425 19.7052 12.9391C19.5079 13.1363 19.2638 13.2349 18.9727 13.2349H7.49278L12.5265 18.2686C12.7148 18.457 12.8134 18.6967 12.8223 18.9877C12.8306 19.2788 12.7319 19.5185 12.5265 19.7068C12.3381 19.9123 12.0984 20.015 11.8074 20.015C11.5163 20.015 11.2681 19.9123 11.0626 19.7068V19.7068Z" fill="#464C4C"/>
</g>
<defs>
<clipPath id="clip0_11132_117560">
<rect width="24" height="24" fill="white"/>
</clipPath>
</defs>
</svg>
