<svg width="24" height="24" viewBox="0 0 24 24" fill="none" xmlns="http://www.w3.org/2000/svg">
<g clip-path="url(#clip0_11132_279872)">
<path fill-rule="evenodd" clip-rule="evenodd" d="M11.75 23.5C18.2393 23.5 23.5 18.2393 23.5 11.75C23.5 5.26065 18.2393 0 11.75 0C5.26065 0 0 5.26065 0 11.75C0 18.2393 5.26065 23.5 11.75 23.5ZM11.4488 10.4717L14.425 7.49549C14.778 7.14251 15.3503 7.14251 15.7032 7.49549C16.0562 7.84846 16.0562 8.42074 15.7032 8.77372L12.727 11.7499L15.7033 14.7263C16.0563 15.0792 16.0563 15.6515 15.7033 16.0045C15.3504 16.3575 14.7781 16.3575 14.4251 16.0045L11.4488 13.0282L8.47248 16.0045C8.1195 16.3575 7.54722 16.3575 7.19425 16.0045C6.84127 15.6515 6.84127 15.0792 7.19425 14.7263L10.1706 11.7499L7.19433 8.77372C6.84136 8.42074 6.84136 7.84846 7.19433 7.49549C7.54731 7.14251 8.11959 7.14251 8.47257 7.49549L11.4488 10.4717ZM1.80763 11.75C1.80763 17.241 6.25896 21.6923 11.7499 21.6923C17.2409 21.6923 21.6922 17.241 21.6922 11.75C21.6922 6.25902 17.2409 1.8077 11.7499 1.8077C6.25896 1.8077 1.80763 6.25902 1.80763 11.75Z" fill="#464C4C"/>
</g>
<defs>
<clipPath id="clip0_11132_279872">
<rect width="24" height="24" fill="white"/>
</clipPath>
</defs>
</svg>
