<svg width="28" height="29" viewBox="0 0 28 29" fill="none" xmlns="http://www.w3.org/2000/svg">
<g clip-path="url(#clip0_11132_53526)">
<path d="M1.75 5.60938C1.75 5.14525 1.93437 4.70013 2.26256 4.37194C2.59075 4.04375 3.03587 3.85938 3.5 3.85938H24.5C24.9641 3.85938 25.4092 4.04375 25.7374 4.37194C26.0656 4.70013 26.25 5.14525 26.25 5.60938H1.75ZM14 19.6094C14.9283 19.6094 15.8185 19.2406 16.4749 18.5842C17.1313 17.9279 17.5 17.0376 17.5 16.1094C17.5 15.1811 17.1313 14.2909 16.4749 13.6345C15.8185 12.9781 14.9283 12.6094 14 12.6094C13.0717 12.6094 12.1815 12.9781 11.5251 13.6345C10.8687 14.2909 10.5 15.1811 10.5 16.1094C10.5 17.0376 10.8687 17.9279 11.5251 18.5842C12.1815 19.2406 13.0717 19.6094 14 19.6094Z" fill="#990099"/>
<path d="M0 9.10938C0 8.64525 0.184375 8.20013 0.512563 7.87194C0.840752 7.54375 1.28587 7.35937 1.75 7.35938H26.25C26.7141 7.35938 27.1592 7.54375 27.4874 7.87194C27.8156 8.20013 28 8.64525 28 9.10938V23.1094C28 23.5735 27.8156 24.0186 27.4874 24.3468C27.1592 24.675 26.7141 24.8594 26.25 24.8594H1.75C1.28587 24.8594 0.840752 24.675 0.512563 24.3468C0.184375 24.0186 0 23.5735 0 23.1094V9.10938ZM5.25 9.10938C5.25 10.0376 4.88125 10.9279 4.22487 11.5842C3.5685 12.2406 2.67826 12.6094 1.75 12.6094V19.6094C2.67826 19.6094 3.5685 19.9781 4.22487 20.6345C4.88125 21.2909 5.25 22.1811 5.25 23.1094H22.75C22.75 22.1811 23.1187 21.2909 23.7751 20.6345C24.4315 19.9781 25.3217 19.6094 26.25 19.6094V12.6094C25.3217 12.6094 24.4315 12.2406 23.7751 11.5842C23.1187 10.9279 22.75 10.0376 22.75 9.10938H5.25Z" fill="#990099"/>
</g>
<defs>
<clipPath id="clip0_11132_53526">
<rect width="28" height="28" fill="white" transform="translate(0 0.359375)"/>
</clipPath>
</defs>
</svg>
