<svg width="24" height="24" viewBox="0 0 24 24" fill="none" xmlns="http://www.w3.org/2000/svg">
<path fill-rule="evenodd" clip-rule="evenodd" d="M12 0.000488281C8.8174 0.000488281 5.76516 1.26477 3.51472 3.51521C1.26428 5.76564 0 8.81789 0 12.0005C0 15.1831 1.26428 18.2353 3.51472 20.4858C5.76516 22.7362 8.8174 24.0005 12 24.0005C15.1826 24.0005 18.2348 22.7362 20.4853 20.4858C22.7357 18.2353 24 15.1831 24 12.0005C24 8.81789 22.7357 5.76564 20.4853 3.51521C18.2348 1.26477 15.1826 0.000488281 12 0.000488281V0.000488281ZM1.72127 12.0005C1.72127 9.2744 2.80421 6.65997 4.73184 4.73233C6.65948 2.8047 9.27391 1.72176 12 1.72176C14.7261 1.72176 17.3405 2.8047 19.2682 4.73233C21.1958 6.65997 22.2787 9.2744 22.2787 12.0005C22.2787 14.7266 21.1958 17.341 19.2682 19.2686C17.3405 21.1963 14.7261 22.2792 12 22.2792C9.27391 22.2792 6.65948 21.1963 4.73184 19.2686C2.80421 17.341 1.72127 14.7266 1.72127 12.0005V12.0005ZM16.8178 8.4456C16.9562 8.24906 17.0108 8.0056 16.9697 7.76876C16.9286 7.53193 16.7951 7.32113 16.5985 7.18273C16.402 7.04434 16.1585 6.98969 15.9217 7.0308C15.6848 7.07192 15.474 7.20543 15.3356 7.40197L10.2244 14.6676L8.11717 12.5205C7.94812 12.3529 7.71992 12.2586 7.48189 12.258C7.24386 12.2573 7.01514 12.3503 6.84517 12.517C6.6752 12.6836 6.57764 12.9105 6.57359 13.1484C6.56953 13.3864 6.6593 13.6165 6.82349 13.7888L9.69349 16.7113C9.78646 16.8059 9.89907 16.879 10.0234 16.9253C10.1477 16.9716 10.2806 16.99 10.4128 16.9793C10.545 16.9686 10.6732 16.929 10.7885 16.8633C10.9037 16.7976 11.003 16.7073 11.0796 16.599L16.8178 8.4456V8.4456Z" fill="#464C4C"/>
</svg>
