<svg width="32" height="32" viewBox="0 0 32 32" fill="none" xmlns="http://www.w3.org/2000/svg">
<g clip-path="url(#clip0_11133_297825)">
<path d="M28.8951 6.5H22L21.5 7.5H10.5L10.0234 6.5H3.105C1.39305 6.5 0 7.89505 0 9.60985V28.3941C-5e-08 30.1064 1.39355 31.5 3.10595 31.5H26.8941C28.2271 31.5 29.3636 30.6539 29.8032 29.4718C31.1992 29.3308 32 28.2338 32 26.3902V9.60985C32 7.89505 30.6069 6.5 28.8951 6.5ZM26.8941 30.5H3.10595C1.94485 30.5 1 29.5552 1 28.3941V11.606C1 10.4448 1.94485 9.5 3.10595 9.5H26.8941C28.0552 9.5 29 10.4448 29 11.606V15H22.9741C20.5068 15 18.5 17.0616 18.5 19.5957V20.4048C18.5 22.9385 20.5068 25 22.9741 25H29V28.3941C29 29.5552 28.0552 30.5 26.8941 30.5ZM29 24H22.9741C21.0586 24 19.5 22.3872 19.5 20.4048V19.5957C19.5 17.6128 21.0586 16 22.9741 16H29V24ZM31 26.3902C31 27.8566 30.455 28.303 29.9977 28.4394C29.9979 28.4242 30 28.4093 30 28.3941V11.606C30 9.89355 28.6064 8.5 26.8941 8.5H3.10595C2.3081 8.5 1.5818 8.8051 1.0311 9.3015C1.1815 8.28485 2.0497 7.5 3.105 7.5H28.8951C30.0556 7.5 31 8.4463 31 9.60985V26.3902Z" fill="#002120"/>
<path d="M21 20C21 21.1031 21.897 22 23 22C24.1031 22 25 21.1031 25 20C25 18.897 24.1031 18 23 18C21.897 18 21 18.897 21 20ZM23 19C23.5513 19 24 19.4487 24 20C24 20.5513 23.5513 21 23 21C22.4487 21 22 20.5513 22 20C22 19.4487 22.4487 19 23 19Z" fill="#002120"/>
<path d="M20.2398 1.75738C19.1065 0.624109 17.5998 0 15.9971 0C14.3945 0 12.8878 0.624109 11.7545 1.75738C10.0008 3.5 8.99928 6 10.9997 9.5C12.4996 9.5 14.3973 9.5 16 9.5C17.6027 9.5 18.4996 9.5 20.4996 9.5C22.4991 8.5 22.9991 4 20.2398 1.75738ZM20 8.5C18.4996 8.5 16 8.5 16 8.5C16 8.5 12.9996 8.5 11.7545 8.5C10.4991 6.5 10.6118 4.44284 12.5259 2.52876C13.4531 1.60153 14.6859 1.09091 15.9971 1.09091C17.3084 1.09091 18.5412 1.60153 19.4684 2.52873C21.3824 4.4428 21.4991 6.5 20 8.5Z" fill="#002120"/>
<path d="M18.4118 6.69598L16.5622 6.69618L16.5621 8.41256C16.5622 8.737 16.2991 9 15.9746 9C15.6503 9 15.3873 8.737 15.3873 8.41256V6.69608L13.5867 6.69618C13.2623 6.69608 12.9993 6.43307 12.9993 6.10874C12.9995 5.78431 13.2623 5.5214 13.5867 5.5214H15.3873V3.58744C15.3873 3.26271 15.6503 3 15.9747 3C16.2992 3 16.5621 3.263 16.5622 3.58724V5.5214H18.412C18.7363 5.5214 18.9993 5.78431 18.9993 6.10854C18.9996 6.43317 18.7363 6.69618 18.4118 6.69598Z" fill="#002120"/>
</g>
<defs>
<clipPath id="clip0_11133_297825">
<rect width="32" height="32" fill="white"/>
</clipPath>
</defs>
</svg>
