<svg width="24" height="24" viewBox="0 0 24 24" fill="none" xmlns="http://www.w3.org/2000/svg">
<path d="M3.364 6.638V18.658H20.636V6.638H3.364ZM2.909 3H21.091C21.593 3 22 3.4 22 3.895V19.105C21.9991 19.2235 21.9748 19.3407 21.9286 19.4499C21.8823 19.559 21.815 19.658 21.7305 19.7411C21.646 19.8242 21.5459 19.8899 21.436 19.9343C21.3261 19.9787 21.2085 20.0011 21.09 20H2.91C2.407 20 2 19.6 2 19.105V3.895C2 3.4 2.407 3 2.91 3H2.909ZM8.136 4.759C8.136 4.389 8.442 4.088 8.818 4.088C9.195 4.088 9.5 4.388 9.5 4.759V18.658C9.5 19.028 9.195 19.328 8.818 19.328C8.72923 19.3288 8.64116 19.3121 8.55885 19.2788C8.47653 19.2456 8.40156 19.1965 8.33823 19.1343C8.2749 19.072 8.22445 18.998 8.18975 18.9162C8.15505 18.8345 8.13678 18.7468 8.136 18.658V4.759ZM15.096 4.119C15.473 4.119 15.778 4.419 15.778 4.789V9.784H20.688C21.065 9.784 21.371 10.085 21.371 10.456C21.371 10.826 21.065 11.127 20.689 11.127L15.778 11.126V14.188H20.78C21.157 14.188 21.462 14.488 21.462 14.859C21.462 15.229 21.157 15.53 20.78 15.53H15.778V18.688C15.7773 18.7769 15.7592 18.8647 15.7245 18.9465C15.6899 19.0284 15.6395 19.1026 15.5761 19.1649C15.5128 19.2272 15.4378 19.2764 15.3554 19.3097C15.273 19.3431 15.1849 19.3598 15.096 19.359C14.9169 19.3603 14.7446 19.2905 14.6169 19.1649C14.4892 19.0393 14.4166 18.8681 14.415 18.689L14.414 15.53H3.001C2.91223 15.5308 2.82416 15.5141 2.74185 15.4808C2.65953 15.4476 2.58456 15.3985 2.52123 15.3363C2.4579 15.274 2.40745 15.2 2.37275 15.1182C2.33805 15.0365 2.31978 14.9488 2.319 14.86C2.319 14.489 2.624 14.188 3.001 14.188H14.414V11.126L2.909 11.127C2.82014 11.1278 2.732 11.1111 2.64962 11.0778C2.56723 11.0444 2.49222 10.9952 2.42888 10.9329C2.36554 10.8706 2.3151 10.7964 2.28046 10.7145C2.24582 10.6327 2.22765 10.5449 2.227 10.456C2.227 10.086 2.533 9.785 2.909 9.785L14.414 9.784V4.789C14.414 4.419 14.72 4.119 15.096 4.119V4.119Z" fill="#464C4C"/>
</svg>
