<svg width="32" height="31" viewBox="0 0 32 31" fill="none" xmlns="http://www.w3.org/2000/svg">
<g clip-path="url(#clip0_11132_39886)">
<path d="M16.6252 17.0056V14.2756C17.0423 14.1281 17.3937 13.838 17.6175 13.4565C17.8413 13.075 17.923 12.6267 17.8482 12.1907C17.7735 11.7548 17.547 11.3594 17.2088 11.0743C16.8706 10.7892 16.4426 10.6328 16.0002 10.6328C15.5579 10.6328 15.1299 10.7892 14.7917 11.0743C14.4535 11.3594 14.227 11.7548 14.1523 12.1907C14.0775 12.6267 14.1592 13.075 14.383 13.4565C14.6068 13.838 14.9582 14.1281 15.3752 14.2756V17.0062C14.9582 17.1536 14.6068 17.4437 14.383 17.8253C14.1592 18.2068 14.0775 18.6551 14.1523 19.091C14.227 19.527 14.4535 19.9224 14.7917 20.2075C15.1299 20.4926 15.5579 20.649 16.0002 20.649C16.4426 20.649 16.8706 20.4926 17.2088 20.2075C17.547 19.9224 17.7735 19.527 17.8482 19.091C17.923 18.6551 17.8413 18.2068 17.6175 17.8253C17.3937 17.4437 17.0423 17.1536 16.6252 17.0062V17.0056ZM16.0002 11.8906C16.1239 11.8906 16.2447 11.9272 16.3475 11.9959C16.4503 12.0646 16.5304 12.1622 16.5777 12.2764C16.625 12.3906 16.6374 12.5163 16.6132 12.6375C16.5891 12.7587 16.5296 12.8701 16.4422 12.9575C16.3548 13.0449 16.2434 13.1045 16.1222 13.1286C16.0009 13.1527 15.8753 13.1403 15.7611 13.093C15.6469 13.0457 15.5493 12.9656 15.4806 12.8628C15.4119 12.76 15.3752 12.6392 15.3752 12.5156C15.3752 12.3498 15.4411 12.1908 15.5583 12.0736C15.6755 11.9564 15.8345 11.8906 16.0002 11.8906V11.8906ZM16.0002 19.3906C15.8766 19.3906 15.7558 19.3539 15.653 19.2852C15.5502 19.2166 15.4701 19.119 15.4228 19.0048C15.3755 18.8906 15.3631 18.7649 15.3873 18.6436C15.4114 18.5224 15.4709 18.411 15.5583 18.3236C15.6457 18.2362 15.7571 18.1767 15.8783 18.1526C15.9996 18.1285 16.1252 18.1409 16.2394 18.1882C16.3536 18.2355 16.4512 18.3156 16.5199 18.4183C16.5886 18.5211 16.6252 18.642 16.6252 18.7656C16.6252 18.9313 16.5594 19.0903 16.4422 19.2075C16.325 19.3247 16.166 19.3906 16.0002 19.3906Z" fill="#5E6566"/>
<path d="M25.009 16.5247C25.2433 16.2903 25.375 15.9724 25.375 15.641C25.375 15.3095 25.2433 14.9916 25.009 14.7572L21.3921 11.1404L23.2046 9.35161C23.472 9.41816 23.7538 9.39462 24.0064 9.28463C24.259 9.17465 24.4682 8.98437 24.6016 8.74332C24.735 8.50228 24.7852 8.22394 24.7442 7.95149C24.7033 7.67905 24.5736 7.42773 24.3752 7.23653C24.1769 7.04534 23.9209 6.92495 23.6472 6.89406C23.3734 6.86316 23.0971 6.92349 22.8611 7.06567C22.6251 7.20785 22.4427 7.42394 22.3421 7.68041C22.2414 7.93688 22.2283 8.21939 22.3046 8.48411L20.5084 10.2566L16.884 6.63161C16.6496 6.39727 16.3317 6.26562 16.0002 6.26562C15.6688 6.26562 15.3509 6.39727 15.1165 6.63161L11.4996 10.2497L9.71086 8.43598C9.77707 8.16858 9.75318 7.8868 9.6429 7.63435C9.53261 7.38191 9.3421 7.17292 9.10092 7.0398C8.85974 6.90668 8.58137 6.85688 8.30899 6.89811C8.03661 6.93935 7.78546 7.06932 7.59449 7.26786C7.40352 7.46641 7.28341 7.72242 7.25279 7.9962C7.22217 8.26997 7.28276 8.5462 7.42515 8.78202C7.56754 9.01785 7.78378 9.20009 8.04032 9.30048C8.29686 9.40086 8.57936 9.41378 8.84399 9.33723L10.6159 11.1329L6.99086 14.7572C6.75652 14.9916 6.62488 15.3095 6.62488 15.641C6.62488 15.9724 6.75652 16.2903 6.99086 16.5247L10.6159 20.1491L8.84399 21.9447C8.57991 21.8687 8.29813 21.8818 8.0423 21.9822C7.78648 22.0826 7.57091 22.2645 7.429 22.4999C7.28709 22.7352 7.22677 23.0108 7.25739 23.2839C7.28801 23.5569 7.40787 23.8123 7.59837 24.0104C7.78887 24.2084 8.03939 24.3381 8.31109 24.3793C8.58279 24.4205 8.86049 24.371 9.10116 24.2383C9.34183 24.1057 9.53202 23.8973 9.64225 23.6456C9.75248 23.3939 9.7766 23.1128 9.71086 22.846L11.4996 21.0335L15.1165 24.6497C15.3509 24.8841 15.6688 25.0157 16.0002 25.0157C16.3317 25.0157 16.6496 24.8841 16.884 24.6497L20.509 21.0254L22.304 22.7979C22.2279 23.0619 22.2411 23.3437 22.3415 23.5995C22.4418 23.8554 22.6238 24.0709 22.8591 24.2128C23.0944 24.3548 23.37 24.4151 23.6431 24.3845C23.9162 24.3538 24.1716 24.234 24.3696 24.0435C24.5677 23.853 24.6974 23.6025 24.7386 23.3308C24.7798 23.0591 24.7302 22.7814 24.5976 22.5407C24.4649 22.3 24.2566 22.1098 24.0049 21.9996C23.7531 21.8894 23.4721 21.8652 23.2052 21.931L21.3927 20.1416L25.009 16.5247ZM16.0002 23.766L7.87524 15.641L16.0002 7.51598L24.1252 15.641L16.0002 23.766Z" fill="#5E6566"/>
</g>
<defs>
<clipPath id="clip0_11132_39886">
<rect width="20" height="20" fill="white" transform="translate(6.00024 5.64062)"/>
</clipPath>
</defs>
</svg>
