<svg width="20" height="20" viewBox="0 0 20 20" fill="none" xmlns="http://www.w3.org/2000/svg">
<path d="M8.33398 6.53862C8.33398 6.15416 8.65938 5.84221 9.0608 5.84221C9.46184 5.84221 9.78724 6.15416 9.78724 6.53862V10.7788L12.8147 12.0546C13.1817 12.2093 13.3479 12.62 13.1865 12.9718C13.0251 13.3232 12.5968 13.483 12.2298 13.3283L8.80505 11.8852C8.52982 11.7858 8.33398 11.5312 8.33398 11.2329V6.53862ZM13.3779 17.0167C12.793 17.3035 12.8709 18.126 13.5011 18.3065C13.6834 18.3561 13.865 18.341 14.035 18.2595C14.5038 18.0337 14.9539 17.7677 15.376 17.469C15.5819 17.3219 15.689 17.09 15.6669 16.8448C15.6107 16.3031 14.9674 16.0285 14.5102 16.3501C14.1532 16.6028 13.7744 16.8258 13.3779 17.0167ZM16.342 14.5201C16.011 14.9932 16.3829 15.6293 16.9775 15.6042C17.21 15.5923 17.4182 15.4832 17.5485 15.2965C17.8428 14.878 18.0971 14.4396 18.315 13.9802C18.5251 13.5264 18.1978 13.0181 17.68 12.9969C17.383 12.9876 17.1142 13.1466 16.9906 13.4062C16.806 13.7957 16.5914 14.1654 16.342 14.5201ZM17.6773 10.9475C17.6511 11.2211 17.7897 11.4774 18.0364 11.6163C18.4993 11.8683 19.0699 11.5862 19.1242 11.0789C19.174 10.5756 19.1819 10.0774 19.1459 9.57303C19.128 9.33073 18.9819 9.11714 18.7573 9.00406C18.2532 8.7535 17.656 9.12826 17.6961 9.67067C17.7268 10.0986 17.7197 10.5204 17.6773 10.9475ZM17.0752 7.20057C17.2381 7.56062 17.6751 7.72252 18.0469 7.55811C18.4053 7.40016 18.5659 6.99775 18.4105 6.65027C18.2046 6.18755 17.9567 5.74278 17.6732 5.31919C17.3171 4.79437 16.4791 4.94729 16.3495 5.5615C16.314 5.74206 16.3477 5.91832 16.4514 6.07375C16.6918 6.43344 16.9007 6.8075 17.0752 7.20057Z" fill="#2F3233"/>
<path d="M16.104 3.89746C16.3134 3.68807 16.3144 3.34727 16.0931 3.15048C15.0611 2.23266 13.8332 1.55826 12.5 1.1805C10.9945 0.753919 9.40494 0.71978 7.88255 1.08133C6.36016 1.44288 4.95565 2.18808 3.80273 3.24599C2.64982 4.3039 1.78687 5.63931 1.29605 7.12507C0.805233 8.61083 0.702878 10.1975 0.998732 11.734C1.29459 13.2705 1.9788 14.7057 2.98624 15.903C3.99368 17.1003 5.2908 18.0198 6.75412 18.5739C8.05 19.0647 9.43802 19.2544 10.8136 19.132C11.1086 19.1057 11.3108 18.8314 11.2674 18.5385V18.5385C11.2239 18.2455 10.9512 18.0452 10.6561 18.0692C9.46184 18.1662 8.25857 17.997 7.1339 17.5711C5.84175 17.0817 4.69636 16.2698 3.80676 15.2126C2.91717 14.1554 2.31299 12.888 2.05175 11.5312C1.7905 10.1745 1.88088 8.77341 2.31429 7.46144C2.74769 6.14948 3.50969 4.97028 4.52775 4.03612C5.5458 3.10196 6.78602 2.44392 8.13033 2.12467C9.47464 1.80541 10.8783 1.83556 12.2077 2.21223C13.3647 2.54009 14.432 3.12098 15.3334 3.91028C15.5562 4.10535 15.8946 4.10685 16.104 3.89746V3.89746Z" fill="#2F3233"/>
</svg>
