<svg width="24" height="24" viewBox="0 0 24 24" fill="none" xmlns="http://www.w3.org/2000/svg">
<path d="M14.3996 4.80039H17.9996C18.7196 4.80039 19.1996 5.28039 19.1996 6.00039V7.20039H3.59961V6.00039C3.59961 5.28039 4.19961 4.80039 4.79961 4.80039H8.39961C8.63961 3.48039 9.95961 2.40039 11.3996 2.40039C12.8396 2.40039 14.1596 3.48039 14.3996 4.80039ZM9.59961 4.80039H13.1996C12.9596 4.08039 12.1196 3.60039 11.3996 3.60039C10.6796 3.60039 9.83961 4.08039 9.59961 4.80039ZM4.79961 8.40039H17.9996L16.9196 20.5204C16.9196 21.1204 16.3196 21.6004 15.7196 21.6004H7.07961C6.47961 21.6004 5.99961 21.1204 5.87961 20.5204L4.79961 8.40039Z" fill="#464C4C"/>
</svg>
