<svg width="24" height="24" viewBox="0 0 24 24" fill="none" xmlns="http://www.w3.org/2000/svg">
<path d="M0.370929 9.17632C0.0627097 9.04703 -0.0822077 8.69365 0.047569 8.38659C0.177346 8.07953 0.53261 7.93516 0.840829 8.06445L3.36769 9.13107C3.67591 9.26035 3.82083 9.61428 3.69105 9.92079C3.56127 10.2278 3.20601 10.3722 2.89779 10.2429L0.370929 9.17632ZM2.94051 5.25246C2.70475 5.01597 2.70583 4.6335 2.94321 4.39863C3.18059 4.16376 3.56452 4.16483 3.80028 4.40132L5.7307 6.34493C5.96647 6.58142 5.96538 6.96389 5.728 7.19877C5.49062 7.43364 5.1067 7.43256 4.87093 7.19607L2.94051 5.25246ZM6.81488 2.59454C6.68781 2.2864 6.83543 1.93356 7.14473 1.80697C7.45457 1.68037 7.80821 1.82744 7.93583 2.13557L8.97945 4.66474C9.10652 4.97288 8.95836 5.32572 8.64906 5.45232C8.33976 5.57891 7.98557 5.43185 7.8585 5.12371L6.81488 2.59454ZM23.1592 8.06445C23.4674 7.93516 23.8227 8.07953 23.9524 8.38659C24.0822 8.69365 23.9373 9.04703 23.6291 9.17632L21.1022 10.2429C20.794 10.3722 20.4387 10.2278 20.309 9.92079C20.1792 9.61428 20.3241 9.26035 20.6323 9.13107L23.1592 8.06445ZM20.1997 4.40132C20.4355 4.16483 20.8194 4.16376 21.0568 4.39863C21.2942 4.6335 21.2953 5.01597 21.0595 5.25246L19.1291 7.19607C18.8933 7.43256 18.5094 7.43364 18.272 7.19877C18.0346 6.96389 18.0335 6.58142 18.2693 6.34493L20.1997 4.40132ZM16.0642 2.13557C16.1918 1.82744 16.5454 1.68037 16.8553 1.80697C17.1646 1.93356 17.3122 2.2864 17.1851 2.59454L16.1415 5.12371C16.0144 5.43185 15.6602 5.57891 15.3509 5.45232C15.0416 5.32572 14.8935 4.97288 15.0206 4.66474L16.0642 2.13557ZM11.3733 1.60549C11.3733 1.2715 11.6453 1 11.9811 1C12.3163 1 12.5889 1.2715 12.5889 1.60549V4.33991C12.5889 4.6739 12.3163 4.9454 11.9811 4.9454C11.6453 4.9454 11.3733 4.6739 11.3733 4.33991V1.60549Z" fill="#317C7A"/>
<path d="M2.81177 13.0033L5.78304 8.91154C5.82089 8.85911 5.87064 8.81641 5.92821 8.78696C5.98579 8.75752 6.04953 8.74217 6.11419 8.74219H17.8783C17.9496 8.74243 18.0196 8.76107 18.0816 8.7963C18.1436 8.83153 18.1954 8.88216 18.2321 8.9433L21.1807 12.9942C21.2515 13.0695 21.291 13.169 21.2911 13.2724C21.291 13.3767 21.2516 13.4772 21.1807 13.5537V13.5537L12.3954 22.9786C12.3588 23.018 12.3148 23.0498 12.2658 23.0722C12.2169 23.0946 12.164 23.1071 12.1103 23.1091C12.0565 23.1111 12.0028 23.1024 11.9524 23.0837C11.902 23.0649 11.8557 23.0364 11.8163 22.9997L11.7921 22.974L2.82387 13.5567C2.8065 13.538 2.79081 13.5177 2.777 13.4962V13.4962C2.73042 13.4216 2.70909 13.334 2.71617 13.2463C2.72325 13.1586 2.75836 13.0755 2.81631 13.0093L2.81177 13.0033ZM9.52246 13.6822L12.0855 21.3758L14.6001 13.6822H9.52246ZM15.4605 13.6822L13.0487 21.0794L19.9484 13.6822H15.4605ZM11.1389 21.1021L8.66208 13.6822H4.07135L11.1389 21.1021ZM6.89292 9.56174L8.96752 12.5693L11.1858 9.56174H6.89292ZM12.8264 9.56174L15.1384 12.5693L17.1207 9.56174H12.8264ZM17.8949 9.86416L15.9292 12.8581H20.0829L17.8949 9.8687V9.86416ZM14.334 12.8627L12.0038 9.8309L9.76591 12.8627H14.334ZM8.17669 12.8627L6.10663 9.85963L3.92014 12.8627H8.17669Z" fill="#317C7A"/>
</svg>
