<svg width="24" height="24" viewBox="0 0 24 24" fill="none" xmlns="http://www.w3.org/2000/svg">
<g clip-path="url(#clip0_11132_284813)">
<g clip-path="url(#clip1_11132_284813)">
<path fill-rule="evenodd" clip-rule="evenodd" d="M3.56055 3.48438H6.12305V7.35547C6.12305 7.75586 6.44727 8.08008 6.84766 8.08008C7.24805 8.08008 7.57227 7.75586 7.57227 7.35547V3.48438H9.55859V7.35547C9.55859 7.75586 9.88281 8.08008 10.2832 8.08008C10.6836 8.08008 11.0078 7.75586 11.0078 7.35547V3.48438H12.9941V7.35547C12.9941 7.75586 13.3184 8.08008 13.7187 8.08008C14.1191 8.08008 14.4434 7.75586 14.4434 7.35547V3.48438H16.4297V7.35547C16.4297 7.75586 16.7539 8.08008 17.1543 8.08008C17.5547 8.08008 17.8789 7.75586 17.8789 7.35547V3.48438H20.4414C20.5645 3.48438 20.666 3.58594 20.666 3.70898V12.7871C20.666 12.9102 20.5645 13.0117 20.4414 13.0117H15.3242V15.6055C15.3242 15.6699 15.2715 15.7246 15.2051 15.7246H9.00391C8.93945 15.7246 8.88477 15.6719 8.88477 15.6055V13.0098H3.56055C3.4375 13.0098 3.33594 12.9082 3.33594 12.7852V3.70703C3.33789 3.58398 3.4375 3.48438 3.56055 3.48438ZM2.63281 0H21.3672C22.0918 0 22.75 0.296875 23.2266 0.773438C23.7031 1.25 24 1.9082 24 2.63281V21.2246C24 21.9492 23.7031 22.6074 23.2266 23.084C22.75 23.5605 22.0918 23.8574 21.3672 23.8574H2.63281C1.9082 23.8574 1.25 23.5605 0.773438 23.084C0.296875 22.6074 0 21.9492 0 21.2246V2.63281C0 1.9082 0.296875 1.25 0.773438 0.773438C1.25 0.296875 1.9082 0 2.63281 0ZM21.3672 1.27734H2.63281C2.26172 1.27734 1.92187 1.42969 1.67578 1.67578C1.42969 1.92187 1.27734 2.25977 1.27734 2.63281V21.2246C1.27734 21.5957 1.42969 21.9355 1.67578 22.1816C1.92187 22.4277 2.25977 22.5801 2.63281 22.5801H21.3672C21.7383 22.5801 22.0781 22.4277 22.3242 22.1816C22.5703 21.9355 22.7227 21.5977 22.7227 21.2246V2.63281C22.7227 2.26172 22.5703 1.92187 22.3242 1.67578C22.0781 1.42969 21.7402 1.27734 21.3672 1.27734Z" fill="#124443"/>
<path d="M6.40625 20.3125H5.85938L4.71094 18.4219V20.3125H4.16406V17.5352H4.71094L5.86328 19.4297V17.5352H6.40625V20.3125Z" fill="#124443"/>
<path d="M9.00803 17.5352V19.3945C9.00803 19.681 8.91558 19.9102 8.73068 20.082C8.54579 20.2513 8.28537 20.3411 7.94943 20.3516C7.73589 20.3516 7.54839 20.3138 7.38693 20.2383C7.22808 20.1602 7.10568 20.0495 7.01974 19.9063C6.93381 19.763 6.89084 19.5937 6.89084 19.3984V17.5352H7.44162V19.3945C7.44162 19.5664 7.48459 19.6979 7.57053 19.7891C7.65907 19.8776 7.78537 19.9219 7.94943 19.9219C8.1161 19.9219 8.2424 19.8776 8.32834 19.7891C8.41688 19.6979 8.46115 19.5664 8.46115 19.3945V17.5352H9.00803Z" fill="#124443"/>
<path d="M10.208 17.5352L10.9424 19.6016L11.6768 17.5352H12.3955V20.3125H11.8448V19.4922L11.8994 18.2266L11.1299 20.3125H10.7549L9.98538 18.2305L10.0362 19.4922V20.3125H9.49319V17.5352H10.208Z" fill="#124443"/>
<path d="M12.9112 20.3125V17.5352H13.8682C14.2041 17.5352 14.458 17.6003 14.6299 17.7305C14.8018 17.8581 14.8877 18.0456 14.8877 18.293C14.8877 18.431 14.8526 18.5508 14.7823 18.6523C14.7145 18.7539 14.6169 18.8294 14.4893 18.8789C14.6377 18.918 14.7523 18.9922 14.833 19.1016C14.9138 19.2109 14.9541 19.3438 14.9541 19.5C14.9541 19.763 14.8695 19.9635 14.7002 20.1016C14.5336 20.2396 14.2901 20.3099 13.9698 20.3125H12.9112ZM13.4541 19.0859V19.8828H13.9619C14.1026 19.8828 14.2119 19.849 14.2901 19.7813C14.3682 19.7135 14.4073 19.6185 14.4073 19.4961C14.4073 19.2227 14.2653 19.0859 13.9815 19.0859H13.4541ZM13.4541 18.7031H13.8877C14.0388 18.7031 14.152 18.6719 14.2276 18.6094C14.3031 18.5469 14.3409 18.457 14.3409 18.3398C14.3409 18.207 14.3031 18.112 14.2276 18.0547C14.152 17.9948 14.0323 17.9648 13.8682 17.9648H13.4541V18.7031Z" fill="#124443"/>
<path d="M17.0547 19.0938H15.9375V19.8828H17.2422V20.3125H15.3945V17.5352H17.2383V17.9648H15.9375V18.6758H17.0547V19.0938Z" fill="#124443"/>
<path d="M18.619 19.2734H18.1386V20.3125H17.5917V17.5352H18.6151C18.9407 17.5352 19.192 17.6081 19.369 17.7539C19.5487 17.8971 19.6386 18.1042 19.6386 18.375C19.6386 18.5573 19.5956 18.7135 19.5097 18.8437C19.4237 18.9714 19.2987 19.0703 19.1347 19.1406L19.7401 20.2852V20.3125H19.1542L18.619 19.2734ZM18.1386 18.8477H18.619C18.7649 18.8477 18.8795 18.8086 18.9628 18.7305C19.0461 18.6523 19.0878 18.5456 19.0878 18.4102C19.0878 18.2695 19.0474 18.1615 18.9667 18.0859C18.886 18.0078 18.7701 17.9674 18.619 17.9648H18.1386V18.8477Z" fill="#124443"/>
</g>
</g>
<defs>
<clipPath id="clip0_11132_284813">
<rect width="24" height="24" fill="white"/>
</clipPath>
<clipPath id="clip1_11132_284813">
<rect width="24" height="23.8574" fill="white"/>
</clipPath>
</defs>
</svg>
