<svg width="28" height="29" viewBox="0 0 28 29" fill="none" xmlns="http://www.w3.org/2000/svg">
<g clip-path="url(#clip0_11132_56055)">
<path d="M8 18C8 17.6307 8.0582 17.2649 8.17127 16.9237C8.28434 16.5825 8.45008 16.2724 8.65901 16.0113C8.86794 15.7501 9.11598 15.5429 9.38896 15.4016C9.66194 15.2602 9.95453 15.1875 10.25 15.1875C10.5455 15.1875 10.8381 15.2602 11.111 15.4016C11.384 15.5429 11.6321 15.7501 11.841 16.0113C12.0499 16.2724 12.2157 16.5825 12.3287 16.9237C12.4418 17.2649 12.5 17.6307 12.5 18C12.5 18.7459 12.2629 19.4613 11.841 19.9887C11.419 20.5162 10.8467 20.8125 10.25 20.8125C9.65326 20.8125 9.08097 20.5162 8.65901 19.9887C8.23705 19.4613 8 18.7459 8 18ZM19.25 15.1875C18.6533 15.1875 18.081 15.4838 17.659 16.0113C17.2371 16.5387 17 17.2541 17 18C17 18.7459 17.2371 19.4613 17.659 19.9887C18.081 20.5162 18.6533 20.8125 19.25 20.8125C19.8467 20.8125 20.419 20.5162 20.841 19.9887C21.2629 19.4613 21.5 18.7459 21.5 18C21.5 17.2541 21.2629 16.5387 20.841 16.0113C20.419 15.4838 19.8467 15.1875 19.25 15.1875Z" fill="#757E7F"/>
<path d="M2 5.8125C2 5.56386 2.07902 5.3254 2.21967 5.14959C2.36032 4.97377 2.55109 4.875 2.75 4.875H4.25C4.44891 4.875 4.63968 4.97377 4.78033 5.14959C4.92098 5.3254 5 5.56386 5 5.8125V10.5H25.25C25.4489 10.5 25.6397 10.5988 25.7803 10.7746C25.921 10.9504 26 11.1889 26 11.4375V24.5625C26 24.8111 25.921 25.0496 25.7803 25.2254C25.6397 25.4012 25.4489 25.5 25.25 25.5H5V30.1875C5 30.4361 4.92098 30.6746 4.78033 30.8504C4.63968 31.0262 4.44891 31.125 4.25 31.125C4.05109 31.125 3.86032 31.0262 3.71967 30.8504C3.57902 30.6746 3.5 30.4361 3.5 30.1875V6.75H2.75C2.55109 6.75 2.36032 6.65123 2.21967 6.47541C2.07902 6.2996 2 6.06114 2 5.8125ZM10.25 13.3125C9.25544 13.3125 8.30161 13.8064 7.59835 14.6854C6.89509 15.5645 6.5 16.7568 6.5 18C6.5 19.2432 6.89509 20.4355 7.59835 21.3146C8.30161 22.1936 9.25544 22.6875 10.25 22.6875C11.2446 22.6875 12.1984 22.1936 12.9017 21.3146C13.6049 20.4355 14 19.2432 14 18C14 16.7568 13.6049 15.5645 12.9017 14.6854C12.1984 13.8064 11.2446 13.3125 10.25 13.3125ZM15.5 18C15.5 19.2432 15.8951 20.4355 16.5983 21.3146C17.3016 22.1936 18.2554 22.6875 19.25 22.6875C20.2446 22.6875 21.1984 22.1936 21.9017 21.3146C22.6049 20.4355 23 19.2432 23 18C23 16.7568 22.6049 15.5645 21.9017 14.6854C21.1984 13.8064 20.2446 13.3125 19.25 13.3125C18.2554 13.3125 17.3016 13.8064 16.5983 14.6854C15.8951 15.5645 15.5 16.7568 15.5 18Z" fill="#757E7F"/>
<path d="M6.5 26.4375H11.75V28.3125C11.75 28.5611 11.671 28.7996 11.5303 28.9754C11.3897 29.1512 11.1989 29.25 11 29.25H7.25C7.05109 29.25 6.86032 29.1512 6.71967 28.9754C6.57902 28.7996 6.5 28.5611 6.5 28.3125V26.4375ZM12.5 28.3125V26.4375H18.5V28.3125C18.5 28.5611 18.421 28.7996 18.2803 28.9754C18.1397 29.1512 17.9489 29.25 17.75 29.25H13.25C13.0511 29.25 12.8603 29.1512 12.7197 28.9754C12.579 28.7996 12.5 28.5611 12.5 28.3125Z" fill="#757E7F"/>
</g>
<defs>
<clipPath id="clip0_11132_56055">
<rect width="24" height="24" fill="white" transform="translate(2 3)"/>
</clipPath>
</defs>
</svg>
