<svg width="28" height="28" viewBox="0 0 28 28" fill="none" xmlns="http://www.w3.org/2000/svg">
<g clip-path="url(#clip0_11132_54429)">
<g clip-path="url(#clip1_11132_54429)">
<path d="M9.09834 1.16602V4.19611M4.19672 9.09773H1.16663M26.8333 9.09773H23.8032M4.19672 13.9994H1.16663M26.8333 13.9994H23.8032M4.19672 18.901H1.16663M26.8333 18.901H23.8032M9.09834 23.8026V26.8327M14 1.16602V4.19611M14 23.8026V26.8327M18.9016 1.16602V4.19611M18.9016 23.8026V26.8327M7.13769 23.8026H20.8622C21.6422 23.8026 22.3903 23.4927 22.9418 22.9412C23.4933 22.3897 23.8032 21.6416 23.8032 20.8616V7.13708C23.8032 6.35709 23.4933 5.60904 22.9418 5.0575C22.3903 4.50596 21.6422 4.19611 20.8622 4.19611H7.13769C6.3577 4.19611 5.60965 4.50596 5.05811 5.0575C4.50657 5.60904 4.19672 6.35709 4.19672 7.13708V20.8616C4.19672 21.6416 4.50657 22.3897 5.05811 22.9412C5.60965 23.4927 6.3577 23.8026 7.13769 23.8026Z" stroke="#DD4B39" stroke-width="1.3" stroke-linecap="round" stroke-linejoin="round"/>
<path d="M9.32556 13.5832H11.5011V17.1134C11.1485 17.2563 10.8159 17.3556 10.5033 17.4115C10.1933 17.4705 9.8757 17.5 9.55062 17.5C8.72292 17.5 8.09026 17.1988 7.65266 16.5965C7.21755 15.991 7 15.1232 7 13.993C7 12.8939 7.25256 12.0369 7.75768 11.4222C8.26531 10.8074 8.96798 10.5 9.86569 10.5C10.4283 10.5 10.971 10.6397 11.4936 10.9192L11.1072 12.0742C10.7071 11.8258 10.2908 11.7016 9.85819 11.7016C9.35557 11.7016 8.95297 11.9112 8.6504 12.3303C8.34783 12.7495 8.19654 13.313 8.19654 14.021C8.19654 14.7599 8.31782 15.325 8.56038 15.7162C8.80544 16.1043 9.16052 16.2984 9.62564 16.2984C9.86819 16.2984 10.1145 16.2674 10.3646 16.2053V14.7848H9.32556V13.5832Z" fill="#DD4B39"/>
<path d="M13.4242 13.8021H13.8068C14.1644 13.8021 14.432 13.7151 14.6095 13.5413C14.7871 13.3643 14.8758 13.1081 14.8758 12.7728C14.8758 12.4344 14.8008 12.1844 14.6508 12.023C14.5032 11.8615 14.2707 11.7808 13.9531 11.7808H13.4242V13.8021ZM16.0499 12.7216C16.0499 13.4543 15.8648 14.0147 15.4947 14.4029C15.1271 14.791 14.6033 14.985 13.9231 14.985H13.4242V17.4069H12.2615V10.5978H14.0131C14.6783 10.5978 15.1834 10.7763 15.5285 11.1334C15.8761 11.4874 16.0499 12.0167 16.0499 12.7216Z" fill="#DD4B39"/>
<path d="M21 10.5978V15.0037C21 15.5067 20.9087 15.9475 20.7262 16.3263C20.5461 16.7051 20.2848 16.9955 19.9422 17.1973C19.5997 17.3991 19.1946 17.5 18.7269 17.5C18.0218 17.5 17.4741 17.2764 17.0841 16.8293C16.694 16.3791 16.4989 15.7644 16.4989 14.985V10.5978H17.6579V14.7661C17.6579 15.2909 17.743 15.6759 17.913 15.9212C18.083 16.1664 18.3644 16.2891 18.757 16.2891C19.137 16.2891 19.4121 16.1664 19.5822 15.9212C19.7547 15.6728 19.841 15.2847 19.841 14.7568V10.5978H21Z" fill="#DD4B39"/>
</g>
</g>
<defs>
<clipPath id="clip0_11132_54429">
<rect width="28" height="28" fill="white"/>
</clipPath>
<clipPath id="clip1_11132_54429">
<rect width="28" height="28" fill="white"/>
</clipPath>
</defs>
</svg>
