<svg width="20" height="20" viewBox="0 0 20 20" fill="none" xmlns="http://www.w3.org/2000/svg">
<g clip-path="url(#clip0_10843_18436)">
<path d="M19.4625 8.69958L11.3017 0.539585C11.1308 0.368523 10.9278 0.232823 10.7043 0.140238C10.4809 0.0476537 10.2415 0 9.99962 0C9.75778 0 9.51831 0.0476537 9.29489 0.140238C9.07147 0.232823 8.86849 0.368523 8.69754 0.539585L0.542537 8.69375L0.534204 8.70209C0.282481 8.95507 0.109725 9.27577 0.0369602 9.62516C-0.0358046 9.97455 -0.00543994 10.3376 0.124359 10.67C0.254157 11.0024 0.477793 11.29 0.768046 11.4976C1.0583 11.7053 1.40266 11.8241 1.7592 11.8396C1.77837 11.8396 1.7967 11.8396 1.81587 11.8396H2.14087V17.8438C2.14109 18.4155 2.36827 18.9638 2.77249 19.3682C3.17672 19.7726 3.72493 20 4.2967 20.0004H7.4892C7.64391 20.0004 7.79229 19.939 7.90168 19.8296C8.01108 19.7202 8.07254 19.5718 8.07254 19.4171V14.7088C8.07276 14.448 8.17643 14.198 8.36079 14.0137C8.54516 13.8293 8.79514 13.7256 9.05587 13.7254H10.9417C11.2024 13.7256 11.4524 13.8293 11.6368 14.0137C11.8211 14.198 11.9248 14.448 11.925 14.7088V19.4171C11.925 19.5718 11.9865 19.7202 12.0959 19.8296C12.2053 19.939 12.3537 20.0004 12.5084 20.0004H15.7009C16.2722 19.9998 16.82 19.7725 17.224 19.3685C17.628 18.9645 17.8552 18.4168 17.8559 17.8454V11.8421H18.1575C18.5216 11.842 18.8774 11.7341 19.1802 11.5318C19.4829 11.3296 19.7189 11.0422 19.8584 10.706C19.9978 10.3697 20.0345 9.99963 19.9638 9.64252C19.893 9.28541 19.718 8.95729 19.4609 8.69958H19.4625ZM18.6342 10.6671C18.5721 10.7293 18.4983 10.7787 18.4171 10.8123C18.3359 10.8459 18.2488 10.8631 18.1609 10.8629H17.2734C16.95 10.8629 16.8025 10.9304 16.8025 11.2538V17.8438C16.7815 18.131 16.6595 18.4016 16.4582 18.6076C16.2569 18.8136 15.9892 18.9418 15.7025 18.9696H12.9584V14.7088C12.9711 14.4394 12.9278 14.1703 12.8313 13.9185C12.7348 13.6667 12.5871 13.4377 12.3976 13.2458C12.2081 13.054 11.9809 12.9035 11.7303 12.8039C11.4797 12.7043 11.2112 12.6577 10.9417 12.6671H9.05837C8.79066 12.6584 8.52409 12.7058 8.27575 12.8062C8.0274 12.9065 7.80276 13.0576 7.6162 13.2498C7.42965 13.442 7.28529 13.6711 7.19239 13.9223C7.09949 14.1736 7.06008 14.4414 7.0767 14.7088V18.9729H4.2967C4.01619 18.943 3.75601 18.8125 3.56434 18.6055C3.37267 18.3985 3.26249 18.1291 3.2542 17.8471V11.2563C3.2542 10.9329 3.0392 10.8663 2.71587 10.8663H1.8167C1.6436 10.8636 1.47834 10.7936 1.35587 10.6713C1.09504 10.4104 0.939204 9.80792 1.19754 9.54709L9.52587 1.22042C9.58784 1.15793 9.66158 1.10834 9.74282 1.07449C9.82406 1.04065 9.91119 1.02322 9.9992 1.02322C10.0872 1.02322 10.1743 1.04065 10.2556 1.07449C10.3368 1.10834 10.4106 1.15793 10.4725 1.22042L18.7867 9.54709C19.0459 9.80875 18.8892 10.4071 18.6292 10.6679L18.6342 10.6671Z" fill="#DAECEF"/>
</g>
<defs>
<clipPath id="clip0_10843_18436">
<rect width="20" height="20" fill="white"/>
</clipPath>
</defs>
</svg>
