<svg width="24" height="24" viewBox="0 0 24 24" fill="none" xmlns="http://www.w3.org/2000/svg">
<path fill-rule="evenodd" clip-rule="evenodd" d="M3.09998 4C3.09998 3.44772 3.54769 3 4.09998 3H8.09998C8.65226 3 9.09998 3.44772 9.09998 4C9.09998 4.55228 8.65226 5 8.09998 5H6.52951L9.33684 7.77911C9.72933 8.16766 9.73252 8.80082 9.34398 9.19331C8.95543 9.5858 8.32227 9.589 7.92978 9.20045L5.09998 6.39909V8C5.09998 8.55228 4.65226 9 4.09998 9C3.54769 9 3.09998 8.55228 3.09998 8V4ZM15.1 4C15.1 3.44772 15.5477 3 16.1 3H20.1C20.6523 3 21.1 3.44772 21.1 4V8C21.1 8.55228 20.6523 9 20.1 9C19.5477 9 19.1 8.55228 19.1 8V6.37066L16.2737 9.19689C15.8832 9.58741 15.2501 9.58741 14.8595 9.19689C14.469 8.80637 14.469 8.1732 14.8595 7.78268L17.6422 5H16.1C15.5477 5 15.1 4.55228 15.1 4ZM9.34398 14.7631C9.73252 15.1556 9.72933 15.7888 9.33684 16.1773L6.48552 19H8.09998C8.65226 19 9.09998 19.4477 9.09998 20C9.09998 20.5523 8.65226 21 8.09998 21H4.09998C3.54769 21 3.09998 20.5523 3.09998 20V16C3.09998 15.4477 3.54769 15 4.09998 15C4.65226 15 5.09998 15.4477 5.09998 16V17.5574L7.92978 14.756C8.32227 14.3675 8.95543 14.3706 9.34398 14.7631ZM14.9031 14.7596C15.2937 14.369 15.9268 14.369 16.3173 14.7596L19.1 17.5422V16C19.1 15.4477 19.5477 15 20.1 15C20.6523 15 21.1 15.4477 21.1 16V20C21.1 20.5523 20.6523 21 20.1 21H16.1C15.5477 21 15.1 20.5523 15.1 20C15.1 19.4477 15.5477 19 16.1 19H17.7294L14.9031 16.1738C14.5126 15.7832 14.5126 15.1501 14.9031 14.7596Z" fill="#464C4C"/>
</svg>
