<svg width="24" height="24" viewBox="0 0 24 24" fill="none" xmlns="http://www.w3.org/2000/svg">
<g clip-path="url(#clip0_11132_279864)">
<path fill-rule="evenodd" clip-rule="evenodd" d="M23.5 11.75C23.5 18.2393 18.2393 23.5 11.75 23.5C5.26065 23.5 0 18.2393 0 11.75C0 5.26065 5.26065 0 11.75 0C18.2393 0 23.5 5.26065 23.5 11.75ZM1.80763 11.75C1.80763 17.241 6.25896 21.6923 11.7499 21.6923C17.2409 21.6923 21.6922 17.241 21.6922 11.75C21.6922 6.25902 17.2409 1.8077 11.7499 1.8077C6.25896 1.8077 1.80763 6.25902 1.80763 11.75Z" fill="#464C4C"/>
<path d="M17.7429 3.5L4.46468 18.7217C4.11171 19.0747 4.11171 19.647 4.46468 20C4.81766 20.3529 5.38994 20.3529 5.74291 20L19.0211 4.77823C19.3741 4.42526 19.3741 3.85297 19.0211 3.5C18.6681 3.14703 18.0958 3.14703 17.7429 3.5Z" fill="#464C4C"/>
</g>
<defs>
<clipPath id="clip0_11132_279864">
<rect width="24" height="24" fill="white"/>
</clipPath>
</defs>
</svg>
