<svg width="24" height="24" viewBox="0 0 24 24" fill="none" xmlns="http://www.w3.org/2000/svg">
<path fill-rule="evenodd" clip-rule="evenodd" d="M18.3973 8.16599C18.5895 8.45711 18.5574 8.85272 18.3012 9.109L9.10879 18.3013C9.01449 18.3956 8.89689 18.463 8.76799 18.4967L4.93955 19.4967C4.81468 19.5293 4.68597 19.5286 4.56504 19.4978C4.43647 19.4651 4.3167 19.3984 4.21968 19.3013C4.03141 19.1131 3.95707 18.8391 4.02436 18.5815L5.02436 14.753C5.05383 14.6402 5.10912 14.5288 5.18561 14.4414L14.4121 5.21991C14.4928 5.13915 14.5901 5.0787 14.696 5.04187C14.7745 5.01456 14.8577 5.00024 14.9424 5.00024C15.1413 5.00024 15.3321 5.07926 15.4727 5.21991L18.3012 8.04834C18.3378 8.08495 18.3698 8.1244 18.3973 8.16599ZM16.7102 8.57867L14.9424 6.8109L6.42423 15.329L5.79924 17.7218L8.19199 17.0968L16.7102 8.57867Z" fill="#317C7A"/>
<path d="M16 4.00024L19.5 7.50024" stroke="#317C7A" stroke-linecap="round"/>
</svg>
