<svg width="16" height="16" viewBox="0 0 16 16" fill="none" xmlns="http://www.w3.org/2000/svg">
<g clip-path="url(#clip0_11132_217792)">
<path d="M7.99999 14.6667C8.87563 14.6678 9.74287 14.4959 10.5519 14.1608C11.3608 13.8257 12.0956 13.334 12.714 12.714C13.334 12.0957 13.8257 11.3609 14.1608 10.5519C14.4959 9.74293 14.6678 8.87569 14.6667 8.00005C14.6678 7.1244 14.4958 6.25717 14.1607 5.44819C13.8256 4.6392 13.334 3.90441 12.714 3.28605C12.0956 2.66606 11.3608 2.17438 10.5519 1.83927C9.74287 1.50417 8.87563 1.33225 7.99999 1.33338C7.12434 1.33226 6.25711 1.5042 5.44813 1.8393C4.63914 2.1744 3.90435 2.66607 3.28599 3.28605C2.66601 3.90441 2.17434 4.6392 1.83924 5.44819C1.50414 6.25717 1.3322 7.1244 1.33332 8.00005C1.33218 8.87569 1.50411 9.74293 1.83921 10.5519C2.17432 11.3609 2.66599 12.0957 3.28599 12.714C3.90435 13.334 4.63914 13.8257 5.44813 14.1608C6.25711 14.4959 7.12434 14.6678 7.99999 14.6667Z" stroke="#34B853" stroke-width="1.5" stroke-linejoin="round"/>
<path d="M5.33331 8L7.33331 10L11.3333 6" stroke="#34B853" stroke-width="1.5" stroke-linecap="round" stroke-linejoin="round"/>
</g>
<defs>
<clipPath id="clip0_11132_217792">
<rect width="16" height="16" fill="white"/>
</clipPath>
</defs>
</svg>
