<svg width="28" height="28" viewBox="0 0 28 28" fill="none" xmlns="http://www.w3.org/2000/svg">
<path fill-rule="evenodd" clip-rule="evenodd" d="M3.0625 1.16602H24.9375C26.8812 1.16602 28 2.33268 28 4.22852V23.5651C28 25.666 26.8721 26.6276 24.9375 26.6276H3.0625C1.2054 26.6276 0 25.666 0 23.5651V4.22852C0 2.33268 1.2054 1.16602 3.0625 1.16602ZM25.0833 6.47298C24.0263 6.47298 2.91667 6.47298 2.91667 6.47298C1.75 6.41602 1.16667 6.99935 1.2041 8.25948L1.16667 23.7497C1.16667 24.4994 1.60727 25.4404 2.85742 25.4404H25.1813C26.25 25.4404 26.8333 24.4994 26.8721 23.7497C26.8721 23.7497 26.8721 15.163 26.8721 8.16602C26.8333 6.99935 26.1404 6.47298 25.0833 6.47298ZM24.2995 3.29655C24.8167 3.29655 25.236 3.71582 25.236 4.23307C25.236 4.75033 24.8167 5.1696 24.2995 5.1696C23.7822 5.1696 23.363 4.75033 23.363 4.23307C23.3652 3.71582 23.7845 3.29655 24.2995 3.29655ZM17.9557 3.29655C18.473 3.29655 18.8923 3.71582 18.8923 4.23307C18.8923 4.75033 18.473 5.1696 17.9557 5.1696C17.4385 5.1696 17.0192 4.75033 17.0192 4.23307C17.0192 3.71582 17.4385 3.29655 17.9557 3.29655ZM21.1276 3.29655C21.6449 3.29655 22.0641 3.71582 22.0641 4.23307C22.0641 4.75033 21.6449 5.1696 21.1276 5.1696C20.6104 5.1696 20.1911 4.75033 20.1911 4.23307C20.1911 3.71582 20.6104 3.29655 21.1276 3.29655Z" fill="#2A918E"/>
<path d="M7.3653 14.048L6.90575 15.772H8.44084L7.98129 14.048C7.95522 13.9799 7.92589 13.9308 7.89329 13.9005C7.86722 13.8703 7.83463 13.8551 7.79551 13.8551H7.55107C7.51196 13.8551 7.47611 13.8703 7.44352 13.9005C7.41745 13.9308 7.39137 13.9799 7.3653 14.048ZM6.80797 19.4243C6.80797 19.568 6.77864 19.6739 6.71997 19.7419C6.66782 19.8025 6.57982 19.8327 6.45597 19.8327H5.01865C4.8948 19.8327 4.80354 19.8025 4.74488 19.7419C4.69273 19.6739 4.66666 19.568 4.66666 19.4243V16.4299C4.66666 16.2031 4.69599 15.9422 4.75466 15.6473C4.81984 15.3524 4.91762 15.0083 5.04799 14.6151L5.89864 12.0403C5.93775 11.9118 5.99642 11.8173 6.07464 11.7568C6.15938 11.6963 6.26694 11.666 6.39731 11.666H9.0275C9.15135 11.666 9.25239 11.6963 9.33061 11.7568C9.41535 11.8173 9.47728 11.9118 9.51639 12.0403L10.367 14.6151C10.4974 15.0083 10.5919 15.3524 10.6506 15.6473C10.7158 15.9422 10.7484 16.2031 10.7484 16.4299V19.4243C10.7484 19.568 10.719 19.6739 10.6604 19.7419C10.6082 19.8025 10.5202 19.8327 10.3964 19.8327H8.91995C8.78958 19.8327 8.6918 19.8025 8.62662 19.7419C8.56795 19.6739 8.53862 19.568 8.53862 19.4243V17.8364H6.80797V19.4243ZM13.8232 19.8327H12.3076C12.1837 19.8327 12.0925 19.8025 12.0338 19.7419C11.9817 19.6739 11.9556 19.568 11.9556 19.4243V12.0743C11.9556 11.9307 11.9817 11.8286 12.0338 11.7681C12.0925 11.7 12.1837 11.666 12.3076 11.666H15.2996C16.1861 11.666 16.7923 11.8702 17.1182 12.2785C17.4441 12.6868 17.6071 13.22 17.6071 13.8778V15.3297C17.6071 15.9875 17.4441 16.5206 17.1182 16.929C16.7923 17.3373 16.1861 17.5415 15.2996 17.5415H14.1752V19.4243C14.1752 19.568 14.1458 19.6739 14.0872 19.7419C14.035 19.8025 13.947 19.8327 13.8232 19.8327ZM14.1556 13.7871V15.4998H15.0356C15.2246 15.4998 15.3485 15.4431 15.4071 15.3297C15.4658 15.2162 15.4951 15.0877 15.4951 14.944V14.3429C15.4951 14.1992 15.4658 14.0706 15.4071 13.9572C15.3485 13.8438 15.2246 13.7871 15.0356 13.7871H14.1556ZM18.816 19.8327C18.6922 19.8327 18.6009 19.8025 18.5423 19.7419C18.4901 19.6739 18.464 19.568 18.464 19.4243V18.0746C18.464 17.9309 18.4901 17.8288 18.5423 17.7683C18.6009 17.7003 18.6922 17.6662 18.816 17.6662H19.784V13.8551H18.816C18.6922 13.8551 18.6009 13.8249 18.5423 13.7644C18.4901 13.6963 18.464 13.5905 18.464 13.4468V12.0743C18.464 11.9307 18.4901 11.8286 18.5423 11.7681C18.6009 11.7 18.6922 11.666 18.816 11.666H22.9813C23.1052 11.666 23.1932 11.7 23.2453 11.7681C23.304 11.8286 23.3333 11.9307 23.3333 12.0743V13.4468C23.3333 13.5905 23.304 13.6963 23.2453 13.7644C23.1932 13.8249 23.1052 13.8551 22.9813 13.8551H22.0329V17.6662H22.9813C23.1052 17.6662 23.1932 17.7003 23.2453 17.7683C23.304 17.8288 23.3333 17.9309 23.3333 18.0746V19.4243C23.3333 19.568 23.304 19.6739 23.2453 19.7419C23.1932 19.8025 23.1052 19.8327 22.9813 19.8327H18.816Z" fill="#2A918E"/>
</svg>
