<svg width="24" height="24" viewBox="0 0 24 24" fill="none" xmlns="http://www.w3.org/2000/svg">
<g clip-path="url(#clip0_11132_284814)">
<g clip-path="url(#clip1_11132_284814)">
<path d="M5.74594 3.87319H18.2541C18.7275 3.87319 19.1578 4.06726 19.4691 4.37851L19.4953 4.40757C19.792 4.71694 19.9753 5.13647 19.9753 5.59397V18.2652C19.9753 18.7358 19.7808 19.1657 19.4691 19.4779L19.4672 19.4798C19.155 19.7915 18.7252 19.986 18.2541 19.986H5.74594C5.27484 19.986 4.84453 19.7919 4.53234 19.4802C4.21922 19.1685 4.02469 18.7382 4.02469 18.2652V5.59397C4.02469 5.12054 4.21828 4.68976 4.53 4.37851L4.55859 4.35226C4.86797 4.05601 5.28703 3.87319 5.74594 3.87319V3.87319ZM7.83 11.7468C8.19703 11.7468 8.53125 11.8963 8.77359 12.1382L8.77547 12.1401C9.01781 12.3833 9.16687 12.7171 9.16687 13.0837C9.16687 13.4521 9.01734 13.7868 8.77547 14.0287L8.75016 14.0521C8.61797 14.1773 8.46047 14.2762 8.28656 14.3394V16.3049H12.8648C13.0908 16.3049 13.2741 16.4877 13.2741 16.7137V19.0794H18.2541C18.4767 19.0794 18.6806 18.9876 18.8287 18.8399C18.9769 18.6913 19.0687 18.4874 19.0687 18.2652V5.59397C19.0687 5.38022 18.9844 5.18382 18.8475 5.03757L18.8283 5.01929C18.6806 4.87163 18.4772 4.77976 18.2541 4.77976H17.0925V11.2827C17.0925 11.5087 16.9097 11.6919 16.6833 11.6919H14.8908C14.8266 11.9071 14.7089 12.1007 14.5538 12.2558C14.3128 12.4987 13.9781 12.6487 13.6092 12.6487C13.2427 12.6487 12.9084 12.4987 12.6661 12.2568L12.6642 12.2554C12.4219 12.0121 12.2728 11.6783 12.2728 11.3118C12.2728 10.9429 12.4223 10.6082 12.6642 10.3663C12.9061 10.1249 13.2408 9.97491 13.6092 9.97491C13.9781 9.97491 14.3128 10.1249 14.5547 10.3668L14.5777 10.3921C14.7075 10.529 14.8092 10.6926 14.872 10.8735H16.2745V4.77976H5.74594C5.53125 4.77976 5.33484 4.86366 5.18859 5.00007L5.17078 5.01929C5.02312 5.16694 4.93125 5.37085 4.93125 5.59397V7.23788H12.0291V6.94491C12.0291 6.78179 12.0956 6.63366 12.2025 6.52679C12.3094 6.41991 12.458 6.35335 12.6206 6.35335H14.0133C14.1764 6.35335 14.3245 6.41991 14.4314 6.52679C14.5378 6.63366 14.6048 6.78179 14.6048 6.94491V8.34882C14.6048 8.51147 14.5378 8.66007 14.4314 8.76647C14.3245 8.87335 14.1764 8.93991 14.0133 8.93991H12.6206C12.458 8.93991 12.3094 8.87335 12.2025 8.76647C12.0956 8.66007 12.0291 8.51147 12.0291 8.34882V8.05585H4.93125V9.83241H10.62C10.8459 9.83241 11.0292 10.0157 11.0292 10.2416V14.2635H14.6512V13.859C14.6512 13.6898 14.7206 13.5355 14.8312 13.4249C14.9423 13.3138 15.0966 13.2444 15.2658 13.2444H16.8117C16.9814 13.2444 17.1352 13.3138 17.2463 13.4249C17.3569 13.5355 17.4263 13.6898 17.4263 13.859V15.4171C17.4263 15.5868 17.3569 15.7405 17.2463 15.8516C17.1352 15.9627 16.9814 16.0321 16.8117 16.0321H15.2658C15.0966 16.0321 14.9423 15.9627 14.8312 15.8516C14.7206 15.7405 14.6512 15.5868 14.6512 15.4171V15.0819H10.62C10.3941 15.0819 10.2108 14.8987 10.2108 14.6727V10.6504H4.93125V18.2652C4.93125 18.4879 5.02359 18.6918 5.17125 18.8394C5.31891 18.9876 5.52281 19.0794 5.74594 19.0794H12.4556V17.1229H7.87781C7.65187 17.1229 7.46859 16.9396 7.46859 16.7137V14.3708C7.245 14.308 7.04484 14.1885 6.885 14.0287C6.64313 13.7868 6.49359 13.4521 6.49359 13.0837C6.49359 12.7162 6.64359 12.3815 6.88594 12.1391C7.12687 11.8963 7.46109 11.7468 7.83 11.7468V11.7468ZM8.23828 12.6735C8.13516 12.5704 7.99078 12.5062 7.83 12.5062C7.67062 12.5062 7.52625 12.5708 7.42172 12.6754C7.31672 12.7785 7.25297 12.9229 7.25297 13.0837C7.25297 13.243 7.31766 13.3874 7.42172 13.4919C7.52625 13.596 7.67062 13.6607 7.83 13.6607C7.98281 13.6607 8.12062 13.603 8.22281 13.5083L8.23828 13.4919C8.34281 13.3874 8.4075 13.243 8.4075 13.0837C8.4075 12.9229 8.34328 12.7785 8.24016 12.6754L8.23828 12.6735V12.6735ZM16.6669 14.0038H15.4106V15.2723H16.6669V14.0038ZM14.0175 10.9035C13.9134 10.7994 13.7691 10.7348 13.6092 10.7348C13.4498 10.7348 13.3055 10.799 13.2014 10.9035C13.0969 11.0076 13.0322 11.1524 13.0322 11.3118C13.0322 11.4721 13.0964 11.6165 13.1995 11.7201L13.2014 11.7215C13.3045 11.8251 13.4489 11.8888 13.6092 11.8888C13.7691 11.8888 13.9134 11.8241 14.0175 11.7201C14.108 11.631 14.168 11.5119 14.183 11.3783C14.1759 11.3474 14.1717 11.3155 14.1717 11.2827C14.1717 11.2583 14.1741 11.2344 14.1783 11.211C14.1586 11.099 14.1075 10.9982 14.0344 10.9194L14.0175 10.9035V10.9035ZM13.845 7.11272H12.7884V8.18054H13.845V7.11272ZM0 16.1427V17.5733C0 17.7205 0.120469 17.841 0.267656 17.841H2.36953C2.51672 17.841 2.63719 17.7205 2.63719 17.5733V16.1427C2.63719 15.9955 2.51672 15.8751 2.36953 15.8751H0.267656C0.120469 15.8751 0 15.9955 0 16.1427H0ZM0 12.8573V14.2879C0 14.4351 0.120469 14.5555 0.267656 14.5555H2.36953C2.51672 14.5555 2.63719 14.4351 2.63719 14.2879V12.8573C2.63719 12.7101 2.51672 12.5896 2.36953 12.5896H0.267656C0.120469 12.5896 0 12.7101 0 12.8573H0ZM0 9.57179V11.0024C0 11.1496 0.120469 11.2701 0.267656 11.2701H2.36953C2.51672 11.2701 2.63719 11.1496 2.63719 11.0024V9.57179C2.63719 9.4246 2.51672 9.30413 2.36953 9.30413H0.267656C0.120469 9.30413 0 9.4246 0 9.57179H0ZM0 6.28632V7.71694C0 7.86413 0.120469 7.9846 0.267656 7.9846H2.36953C2.51672 7.9846 2.63719 7.86413 2.63719 7.71694V6.28632C2.63719 6.13913 2.51672 6.01866 2.36953 6.01866H0.267656C0.120469 6.01866 0 6.13913 0 6.28632H0ZM24 16.1427V17.5733C24 17.7205 23.8795 17.841 23.7323 17.841H21.63C21.4833 17.841 21.3628 17.7205 21.3628 17.5733V16.1427C21.3628 15.9955 21.4833 15.8751 21.63 15.8751H23.7323C23.8795 15.8751 24 15.9955 24 16.1427ZM24 12.8573V14.2879C24 14.4351 23.8795 14.5555 23.7323 14.5555H21.63C21.4833 14.5555 21.3628 14.4351 21.3628 14.2879V12.8573C21.3628 12.7101 21.4833 12.5896 21.63 12.5896H23.7323C23.8795 12.5896 24 12.7101 24 12.8573ZM24 9.57179V11.0024C24 11.1496 23.8795 11.2701 23.7323 11.2701H21.63C21.4833 11.2701 21.3628 11.1496 21.3628 11.0024V9.57179C21.3628 9.4246 21.4833 9.30413 21.63 9.30413H23.7323C23.8795 9.30413 24 9.4246 24 9.57179ZM24 6.28632V7.71694C24 7.86413 23.8795 7.9846 23.7323 7.9846H21.63C21.4833 7.9846 21.3628 7.86413 21.3628 7.71694V6.28632C21.3628 6.13913 21.4833 6.01866 21.63 6.01866H23.7323C23.8795 6.01866 24 6.13913 24 6.28632ZM16.2127 23.8555H17.6433C17.7905 23.8555 17.9109 23.7351 17.9109 23.5879V21.486C17.9109 21.3388 17.7905 21.2183 17.6433 21.2183H16.2127C16.0655 21.2183 15.945 21.3388 15.945 21.486V23.5879C15.945 23.7351 16.0655 23.8555 16.2127 23.8555V23.8555ZM12.9277 23.8555H14.3583C14.5055 23.8555 14.6255 23.7351 14.6255 23.5879V21.486C14.6255 21.3388 14.5055 21.2183 14.3583 21.2183H12.9277C12.7805 21.2183 12.66 21.3388 12.66 21.486V23.5879C12.66 23.7351 12.7805 23.8555 12.9277 23.8555V23.8555ZM9.64219 23.8555H11.0728C11.2195 23.8555 11.34 23.7351 11.34 23.5879V21.486C11.34 21.3388 11.2195 21.2183 11.0728 21.2183H9.64219C9.495 21.2183 9.37453 21.3388 9.37453 21.486V23.5879C9.37453 23.7351 9.495 23.8555 9.64219 23.8555V23.8555ZM6.35672 23.8555H7.78734C7.93453 23.8555 8.05453 23.7351 8.05453 23.5879V21.486C8.05453 21.3388 7.93453 21.2183 7.78734 21.2183H6.35672C6.20953 21.2183 6.08906 21.3388 6.08906 21.486V23.5879C6.08906 23.7351 6.20953 23.8555 6.35672 23.8555V23.8555ZM16.2127 0.00366211H17.6433C17.7905 0.00366211 17.9109 0.124131 17.9109 0.271318V2.37366C17.9109 2.52038 17.7905 2.64085 17.6433 2.64085H16.2127C16.0655 2.64085 15.945 2.52038 15.945 2.37366V0.271318C15.945 0.124131 16.0655 0.00366211 16.2127 0.00366211V0.00366211ZM12.9277 0.00366211H14.3583C14.5055 0.00366211 14.6255 0.124131 14.6255 0.271318V2.37366C14.6255 2.52038 14.5055 2.64085 14.3583 2.64085H12.9277C12.7805 2.64085 12.66 2.52038 12.66 2.37366V0.271318C12.66 0.124131 12.7805 0.00366211 12.9277 0.00366211V0.00366211ZM9.64219 0.00366211H11.0728C11.2195 0.00366211 11.34 0.124131 11.34 0.271318V2.37366C11.34 2.52038 11.2195 2.64085 11.0728 2.64085H9.64219C9.495 2.64085 9.37453 2.52038 9.37453 2.37366V0.271318C9.37453 0.124131 9.495 0.00366211 9.64219 0.00366211V0.00366211ZM6.35672 0.00366211H7.78734C7.93453 0.00366211 8.05453 0.124131 8.05453 0.271318V2.37366C8.05453 2.52038 7.93453 2.64085 7.78734 2.64085H6.35672C6.20953 2.64085 6.08906 2.52038 6.08906 2.37366V0.271318C6.08906 0.124131 6.20953 0.00366211 6.35672 0.00366211V0.00366211Z" fill="#124443"/>
</g>
</g>
<defs>
<clipPath id="clip0_11132_284814">
<rect width="24" height="24" fill="white"/>
</clipPath>
<clipPath id="clip1_11132_284814">
<rect width="24" height="23.8594" fill="white"/>
</clipPath>
</defs>
</svg>
