<svg width="24" height="24" viewBox="0 0 24 24" fill="none" xmlns="http://www.w3.org/2000/svg">
<path d="M6.71285 10.674C7.16685 8.154 9.38485 6.25 12.0428 6.25C13.6208 6.25 15.0428 6.92 16.0328 7.99C16.0998 8.06229 16.1519 8.14707 16.1861 8.23949C16.2203 8.33191 16.236 8.43016 16.2322 8.52864C16.2285 8.62711 16.2054 8.72389 16.1642 8.81343C16.123 8.90297 16.0646 8.98353 15.9923 9.0505C15.9201 9.11747 15.8353 9.16955 15.7429 9.20376C15.6504 9.23797 15.5522 9.25365 15.4537 9.24989C15.3552 9.24613 15.2585 9.22301 15.1689 9.18185C15.0794 9.14069 14.9988 9.08229 14.9318 9.01C14.5638 8.61162 14.1171 8.29394 13.62 8.07706C13.1229 7.86017 12.5862 7.74881 12.0438 7.75C11.1743 7.747 10.3285 8.03396 9.64027 8.56552C8.95206 9.09707 8.46068 9.84288 8.24385 10.685L8.48085 10.459C8.62551 10.3279 8.81558 10.2584 9.01066 10.2653C9.20575 10.2721 9.39048 10.3547 9.52562 10.4956C9.66076 10.6365 9.73565 10.8245 9.73439 11.0197C9.73312 11.2149 9.6558 11.4019 9.51885 11.541L7.89685 13.097C7.82397 13.1668 7.73775 13.2212 7.64335 13.2569C7.54896 13.2926 7.44832 13.3089 7.34748 13.3048C7.24664 13.3007 7.14767 13.2763 7.05649 13.233C6.96531 13.1897 6.8838 13.1285 6.81685 13.053L5.43885 11.497C5.36924 11.4241 5.31505 11.3378 5.27953 11.2435C5.24401 11.1491 5.22788 11.0485 5.2321 10.9478C5.23633 10.8471 5.26082 10.7482 5.30412 10.6572C5.34742 10.5661 5.40863 10.4847 5.4841 10.4178C5.55958 10.351 5.64775 10.3 5.74336 10.268C5.83898 10.236 5.94006 10.2236 6.04057 10.2316C6.14109 10.2395 6.23897 10.2676 6.32836 10.3143C6.41775 10.3609 6.49682 10.4251 6.56085 10.503L6.71285 10.674ZM16.6478 10.696C16.7489 10.6998 16.8481 10.724 16.9395 10.7672C17.0309 10.8103 17.1127 10.8715 17.1798 10.947L18.5598 12.502C18.6299 12.5747 18.6846 12.6609 18.7206 12.7553C18.7565 12.8497 18.7731 12.9504 18.7692 13.0513C18.7653 13.1522 18.741 13.2513 18.6979 13.3427C18.6548 13.434 18.5936 13.5157 18.5181 13.5828C18.4427 13.6499 18.3544 13.7011 18.2586 13.7333C18.1629 13.7655 18.0616 13.778 17.9609 13.7701C17.8602 13.7621 17.7622 13.734 17.6726 13.6872C17.5831 13.6405 17.5039 13.5761 17.4398 13.498L17.2838 13.323C16.8298 15.846 14.6008 17.751 11.9338 17.751C11.1881 17.7522 10.4501 17.6002 9.76546 17.3045C9.08084 17.0088 8.46424 16.5757 7.95385 16.032C7.88246 15.961 7.82609 15.8764 7.7881 15.7832C7.75011 15.6899 7.73128 15.59 7.73272 15.4894C7.73417 15.3887 7.75587 15.2894 7.79652 15.1973C7.83717 15.1052 7.89594 15.0222 7.96934 14.9533C8.04274 14.8844 8.12926 14.831 8.22374 14.7963C8.31822 14.7615 8.41872 14.7461 8.51927 14.751C8.61982 14.756 8.71835 14.7811 8.80899 14.8249C8.89963 14.8687 8.98052 14.9303 9.04685 15.006C9.4172 15.4004 9.86468 15.7144 10.3615 15.9286C10.8583 16.1427 11.3938 16.2525 11.9348 16.251C12.8059 16.2549 13.6536 15.9689 14.3443 15.4381C15.035 14.9073 15.5295 14.1618 15.7498 13.319L15.5198 13.541C15.3764 13.6789 15.184 13.7542 14.985 13.7502C14.786 13.7463 14.5968 13.6635 14.4588 13.52C14.3209 13.3765 14.2457 13.1841 14.2496 12.9852C14.2535 12.7862 14.3364 12.5969 14.4798 12.459L16.0998 10.904C16.1725 10.8343 16.2585 10.78 16.3527 10.7442C16.4468 10.7085 16.5472 10.6921 16.6478 10.696Z" fill="#464C4C"/>
<path fill-rule="evenodd" clip-rule="evenodd" d="M12 1.25C6.063 1.25 1.25 6.063 1.25 12C1.25 17.937 6.063 22.75 12 22.75C17.937 22.75 22.75 17.937 22.75 12C22.75 6.063 17.937 1.25 12 1.25ZM2.75 12C2.75 9.54675 3.72455 7.19397 5.45926 5.45926C7.19397 3.72455 9.54675 2.75 12 2.75C14.4533 2.75 16.806 3.72455 18.5407 5.45926C20.2754 7.19397 21.25 9.54675 21.25 12C21.25 14.4533 20.2754 16.806 18.5407 18.5407C16.806 20.2754 14.4533 21.25 12 21.25C9.54675 21.25 7.19397 20.2754 5.45926 18.5407C3.72455 16.806 2.75 14.4533 2.75 12Z" fill="#464C4C"/>
</svg>
