<svg width="24" height="24" viewBox="0 0 24 24" fill="none" xmlns="http://www.w3.org/2000/svg">
<path d="M12 20.75C10.0772 20.75 8.23311 19.9862 6.87348 18.6265C5.51384 17.2669 4.75 15.4228 4.75 13.5C4.75 11.5772 5.51384 9.73311 6.87348 8.37348C8.23311 7.01384 10.0772 6.25 12 6.25H14.5C14.6989 6.25 14.8897 6.32902 15.0303 6.46967C15.171 6.61032 15.25 6.80109 15.25 7C15.25 7.19891 15.171 7.38968 15.0303 7.53033C14.8897 7.67098 14.6989 7.75 14.5 7.75H12C10.8628 7.75 9.75105 8.08723 8.80547 8.71905C7.85989 9.35087 7.1229 10.2489 6.68769 11.2996C6.25249 12.3502 6.13862 13.5064 6.36048 14.6218C6.58235 15.7372 7.12998 16.7617 7.93414 17.5659C8.73829 18.37 9.76284 18.9176 10.8782 19.1395C11.9936 19.3614 13.1498 19.2475 14.2004 18.8123C15.2511 18.3771 16.1491 17.6401 16.781 16.6945C17.4128 15.7489 17.75 14.6372 17.75 13.5C17.75 13.3011 17.829 13.1103 17.9697 12.9697C18.1103 12.829 18.3011 12.75 18.5 12.75C18.6989 12.75 18.8897 12.829 19.0303 12.9697C19.171 13.1103 19.25 13.3011 19.25 13.5C19.2474 15.422 18.4827 17.2645 17.1236 18.6236C15.7645 19.9827 13.922 20.7474 12 20.75Z" fill="#464C4C"/>
<path d="M12.0002 10.7492C11.9016 10.7496 11.804 10.7304 11.713 10.6926C11.6219 10.6549 11.5394 10.5993 11.4702 10.5292C11.3297 10.3886 11.2508 10.1979 11.2508 9.99918C11.2508 9.80043 11.3297 9.6098 11.4702 9.46918L13.9402 6.99918L11.4702 4.52918C11.3965 4.46052 11.3374 4.37771 11.2964 4.28572C11.2554 4.19372 11.2333 4.0944 11.2316 3.9937C11.2298 3.893 11.2483 3.79297 11.286 3.69958C11.3238 3.60619 11.3799 3.52136 11.4511 3.45014C11.5223 3.37892 11.6072 3.32278 11.7006 3.28505C11.7939 3.24733 11.894 3.22881 11.9947 3.23059C12.0954 3.23236 12.1947 3.2544 12.2867 3.2954C12.3787 3.33639 12.4615 3.39549 12.5302 3.46918L15.5302 6.46918C15.6706 6.6098 15.7495 6.80043 15.7495 6.99918C15.7495 7.19793 15.6706 7.38855 15.5302 7.52918L12.5302 10.5292C12.4609 10.5993 12.3784 10.6549 12.2873 10.6926C12.1963 10.7304 12.0987 10.7496 12.0002 10.7492V10.7492Z" fill="#464C4C"/>
</svg>
