<svg width="24" height="24" viewBox="0 0 24 24" fill="none" xmlns="http://www.w3.org/2000/svg">
<path d="M2.57129 7.92913C2.57129 8.55428 2.81963 9.15383 3.26168 9.59588C3.70373 10.0379 4.30328 10.2863 4.92843 10.2863H19.0713C19.6964 10.2863 20.296 10.0379 20.738 9.59588C21.1801 9.15383 21.4284 8.55428 21.4284 7.92913V4.07199C21.4284 3.44683 21.1801 2.84728 20.738 2.40523C20.296 1.96318 19.6964 1.71484 19.0713 1.71484H4.92843C4.30328 1.71484 3.70373 1.96318 3.26168 2.40523C2.81963 2.84728 2.57129 3.44683 2.57129 4.07199V7.92913ZM4.92843 9.00056C4.337 9.00056 3.857 8.52056 3.857 7.92913V4.07199C3.857 3.48056 4.337 3.00056 4.92843 3.00056H8.57129V9.00056H4.92843ZM9.857 9.00056V3.00056H14.1427V9.00056H9.857ZM15.4284 9.00056V3.00056H19.0713C19.6627 3.00056 20.1427 3.48056 20.1427 4.07199V7.92913C20.1427 8.52056 19.6627 9.00056 19.0713 9.00056H15.4284Z" fill="#464C4C"/>
<path d="M4.03334 19.0103C3.88179 19.0103 3.73645 18.9469 3.62928 18.834C3.52212 18.7212 3.46191 18.5681 3.46191 18.4086C3.46191 18.249 3.52212 18.0959 3.62928 17.9831C3.73645 17.8703 3.88179 17.8069 4.03334 17.8069L18.0825 17.8069C18.1954 17.8069 18.3058 17.8422 18.3997 17.9082C18.4936 17.9742 18.5669 18.0681 18.6101 18.1779C18.6534 18.2878 18.6648 18.4086 18.6429 18.5253C18.621 18.6419 18.5668 18.7491 18.4871 18.8334L15.3665 21.8974C15.3134 21.9535 15.2503 21.9979 15.1809 22.0283C15.1115 22.0586 15.0371 22.0742 14.9619 22.0742C14.8867 22.0742 14.8123 22.0586 14.7429 22.0283C14.6735 21.9979 14.6104 21.9535 14.5573 21.8974L14.5573 21.895C14.4505 21.7823 14.3906 21.6295 14.3906 21.4702C14.3906 21.311 14.4505 21.1582 14.5573 21.0454L16.7053 19.0103L4.03334 19.0103ZM4.84134 16.4001C4.72851 16.3998 4.61827 16.3644 4.52453 16.2983C4.4308 16.2321 4.35775 16.1383 4.3146 16.0285C4.27146 15.9187 4.26014 15.7979 4.28209 15.6814C4.30403 15.5648 4.35825 15.4578 4.43791 15.3736L7.69061 11.9971C7.74369 11.9411 7.80675 11.8966 7.87617 11.8663C7.9456 11.8359 8.02002 11.8203 8.09518 11.8203C8.17035 11.8203 8.24477 11.8359 8.31419 11.8663C8.38362 11.8966 8.44668 11.9411 8.49976 11.9971L8.49976 11.9995C8.60653 12.1123 8.66649 12.2651 8.66649 12.4243C8.66649 12.5836 8.60653 12.7363 8.49976 12.8491L6.22077 15.1967L18.8905 15.1967C19.042 15.1967 19.1874 15.2601 19.2945 15.3729C19.4017 15.4858 19.4619 15.6388 19.4619 15.7984C19.4619 15.958 19.4017 16.111 19.2945 16.2239C19.1874 16.3367 19.042 16.4001 18.8905 16.4001L4.84134 16.4001Z" fill="#464C4C"/>
</svg>
