<svg width="24" height="24" viewBox="0 0 24 24" fill="none" xmlns="http://www.w3.org/2000/svg">
<path fill-rule="evenodd" clip-rule="evenodd" d="M14.3851 15.4451C13.0371 16.5222 11.3278 17.0422 9.60827 16.8984C7.88877 16.7546 6.28961 15.9579 5.13922 14.6718C3.98883 13.3857 3.37455 11.708 3.42254 9.98318C3.47052 8.25835 4.17713 6.61736 5.39725 5.39725C6.61736 4.17713 8.25835 3.47052 9.98318 3.42254C11.708 3.37455 13.3857 3.98883 14.6718 5.13922C15.9579 6.28961 16.7546 7.88877 16.8984 9.60827C17.0422 11.3278 16.5222 13.0371 15.4451 14.3851L20.6011 19.5401C20.6748 19.6088 20.7339 19.6916 20.7749 19.7836C20.8159 19.8756 20.8379 19.9749 20.8397 20.0756C20.8415 20.1763 20.8229 20.2763 20.7852 20.3697C20.7475 20.4631 20.6913 20.5479 20.6201 20.6191C20.5489 20.6903 20.4641 20.7465 20.3707 20.7842C20.2773 20.8219 20.1773 20.8405 20.0766 20.8387C19.9759 20.8369 19.8766 20.8149 19.7846 20.7739C19.6926 20.7329 19.6098 20.6738 19.5411 20.6001L14.3851 15.4451ZM6.46009 13.8831C5.72613 13.1491 5.22624 12.2139 5.0236 11.1959C4.82096 10.1778 4.92466 9.12253 5.3216 8.16339C5.71854 7.20425 6.3909 6.38431 7.2537 5.80719C8.11651 5.23007 9.13103 4.92167 10.1691 4.92097C11.2071 4.92027 12.222 5.22731 13.0856 5.80327C13.9492 6.37923 14.6226 7.19826 15.0209 8.15686C15.4191 9.11546 15.5242 10.1706 15.323 11.1889C15.1217 12.2073 14.6231 13.1431 13.8901 13.8781L13.8851 13.8831L13.8801 13.8871C12.8952 14.8697 11.5605 15.4212 10.1693 15.4205C8.77801 15.4197 7.44394 14.8668 6.46009 13.8831Z" fill="#464C4C"/>
</svg>
