<svg width="24" height="24" viewBox="0 0 24 24" fill="none" xmlns="http://www.w3.org/2000/svg">
<path d="M12 21.0001C16.411 21.0001 20 17.4111 20 13.0001C20 9.65011 17.928 6.77911 15 5.58911V7.81211C15.9109 8.33803 16.6676 9.09417 17.1941 10.0047C17.7207 10.9153 17.9986 11.9483 18 13.0001C18 16.3091 15.309 19.0001 12 19.0001C8.691 19.0001 6 16.3091 6 13.0001C6.00133 11.9483 6.2792 10.9152 6.80575 10.0047C7.3323 9.09408 8.08901 8.33795 9 7.81211V5.58911C6.072 6.77911 4 9.65011 4 13.0001C4 17.4111 7.589 21.0001 12 21.0001Z" fill="#464C4C"/>
<path d="M11 2.00012H13V12.0001H11V2.00012Z" fill="#464C4C"/>
</svg>
