<svg width="24" height="24" viewBox="0 0 24 24" fill="none" xmlns="http://www.w3.org/2000/svg">
<g clip-path="url(#clip0_11132_230214)">
<path d="M23.589 22.2618L21.487 20.1608C21.9298 19.4848 22.2014 18.7113 22.2783 17.9069C22.3552 17.1025 22.2352 16.2914 21.9285 15.5438C21.6218 14.7962 21.1378 14.1345 20.5181 13.6158C19.8985 13.0971 19.1619 12.7371 18.372 12.5668L18.339 12.5608V8.49179C18.3392 8.25585 18.2567 8.0273 18.106 7.84579L18.107 7.84779V7.84279C18.0881 7.81985 18.068 7.79783 18.047 7.77679L18.039 7.76779L18.012 7.74079L10.572 0.300789C10.5513 0.280088 10.5296 0.260399 10.507 0.241789L10.481 0.223789C10.4648 0.210568 10.4481 0.197894 10.431 0.185789L10.406 0.167789L10.352 0.133789L10.329 0.121789C10.3063 0.108456 10.2813 0.0961224 10.254 0.0847891L10.222 0.0717891L10.171 0.0537891L10.135 0.0427891L10.077 0.0277891L10.049 0.0217891C10.0206 0.0159186 9.99188 0.0115791 9.963 0.00878906H1.015C0.746646 0.00983615 0.489538 0.116699 0.299501 0.306174C0.109465 0.495649 0.00184142 0.75244 0 1.02079L0 21.3978C0.000260962 21.6673 0.107155 21.9257 0.297334 22.1166C0.487512 22.3076 0.74552 22.4155 1.015 22.4168H17.325C18.3001 22.4185 19.2537 22.1307 20.065 21.5898L20.047 21.6008L22.149 23.7028C22.3428 23.8791 22.597 23.974 22.859 23.9677C23.1209 23.9615 23.3703 23.8546 23.5555 23.6693C23.7407 23.484 23.8474 23.2345 23.8534 22.9726C23.8595 22.7106 23.7644 22.4565 23.588 22.2628L23.589 22.2638V22.2618ZM20.264 17.4348C20.2641 17.8213 20.188 18.2041 20.0401 18.5613C19.8923 18.9184 19.6755 19.2429 19.4022 19.5163C19.1289 19.7897 18.8045 20.0066 18.4474 20.1545C18.0903 20.3025 17.7075 20.3787 17.321 20.3788C16.9345 20.3789 16.5517 20.3028 16.1945 20.1549C15.8374 20.0071 15.5129 19.7903 15.2395 19.517C14.9661 19.2437 14.7492 18.9193 14.6013 18.5622C14.4533 18.2051 14.3771 17.8223 14.377 17.4358C14.3767 16.6551 14.6866 15.9063 15.2384 15.3541C15.7903 14.8019 16.5388 14.4916 17.3195 14.4913C18.1002 14.491 18.849 14.8009 19.4012 15.3527C19.9534 15.9045 20.2637 16.6541 20.264 17.4348ZM10.868 3.47879L14.861 7.47279H10.868V3.47879ZM2.038 2.03879H8.831V8.49179C8.831 9.05479 9.287 9.51079 9.85 9.51079H16.303V12.5608C14.025 13.0478 12.341 15.0438 12.341 17.4338C12.341 18.5428 12.703 19.5668 13.316 20.3938L13.306 20.3808H2.037L2.038 2.03879Z" fill="#5E6566"/>
</g>
<defs>
<clipPath id="clip0_11132_230214">
<rect width="24" height="24" fill="white" transform="translate(0 0.000732422)"/>
</clipPath>
</defs>
</svg>
