<svg width="24" height="24" viewBox="0 0 24 24" fill="none" xmlns="http://www.w3.org/2000/svg">
<path d="M19.5 3.00745H4.5C4.10218 3.00745 3.72064 3.16548 3.43934 3.44679C3.15804 3.72809 3 4.10962 3 4.50745V19.5074C3 19.9053 3.15804 20.2868 3.43934 20.5681C3.72064 20.8494 4.10218 21.0074 4.5 21.0074H19.5C19.8978 21.0074 20.2794 20.8494 20.5607 20.5681C20.842 20.2868 21 19.9053 21 19.5074V4.50745C21 4.10962 20.842 3.72809 20.5607 3.44679C20.2794 3.16548 19.8978 3.00745 19.5 3.00745ZM19.5 4.50745V7.50745H4.5V4.50745H19.5ZM4.5 19.5074V9.00745H19.5V19.5074H4.5Z" fill="#464C4C"/>
<path d="M8.07001 12.135L10.185 14.2575L8.07001 16.38L9.12751 17.4375L12.3075 14.2575L9.12751 11.0775L8.07001 12.135Z" fill="#464C4C"/>
</svg>
