<svg width="32" height="32" viewBox="0 0 32 32" fill="none" xmlns="http://www.w3.org/2000/svg">
<path fill-rule="evenodd" clip-rule="evenodd" d="M14.493 14.4921V7.83993C14.493 7.19159 15.0186 6.66602 15.6669 6.66602C16.3153 6.66602 16.8409 7.19159 16.8409 7.83993V14.4921H23.4931C24.1414 14.4921 24.667 15.0177 24.667 15.6661C24.667 16.3144 24.1414 16.84 23.4931 16.84H16.8409V23.4921C16.8409 24.1404 16.3153 24.666 15.6669 24.666C15.0186 24.666 14.493 24.1404 14.493 23.4921V16.84H7.84091C7.19257 16.84 6.66699 16.3144 6.66699 15.6661C6.66699 15.0177 7.19257 14.4921 7.84091 14.4921H14.493Z" fill="white"/>
</svg>
