<svg width="20" height="20" viewBox="0 0 20 20" fill="none" xmlns="http://www.w3.org/2000/svg">
<path d="M19.2984 7.76052C19.2088 7.48237 19.0439 7.23445 18.8221 7.0442C18.6003 6.85396 18.3301 6.72881 18.0415 6.68262L13.5135 5.94674L11.4144 1.86773C11.2807 1.60806 11.078 1.39023 10.8287 1.23815C10.5793 1.08607 10.2929 1.00562 10.0008 1.00562C9.70874 1.00562 9.4223 1.08607 9.17294 1.23815C8.92358 1.39023 8.72093 1.60806 8.58722 1.86773L6.48814 5.94674L1.96016 6.68262C1.67188 6.72954 1.4021 6.85496 1.18041 7.04511C0.958719 7.23527 0.793692 7.48282 0.703434 7.7606C0.613176 8.03837 0.601175 8.33564 0.668748 8.61979C0.73632 8.90394 0.880855 9.16398 1.08649 9.37139L4.31723 12.6282L3.61795 17.162C3.57308 17.4508 3.60872 17.7463 3.72094 18.0161C3.83317 18.286 4.01764 18.5196 4.25406 18.6914C4.49048 18.8631 4.7697 18.9664 5.061 18.9897C5.3523 19.0131 5.6444 18.9557 5.90517 18.8238L10.0008 16.7576L14.0966 18.8238C14.3574 18.9554 14.6494 19.0126 14.9406 18.9891C15.2318 18.9657 15.5109 18.8624 15.7472 18.6907C15.9835 18.519 16.168 18.2855 16.2803 18.0158C16.3926 17.7461 16.4284 17.4507 16.3838 17.162L15.6845 12.6282L18.9152 9.37139C19.1215 9.16439 19.2665 8.90433 19.3342 8.62003C19.4018 8.33572 19.3894 8.03824 19.2984 7.76052V7.76052ZM18.0276 8.49105L14.3527 12.1956L15.1483 17.3527C15.1581 17.4144 15.1507 17.4777 15.1268 17.5355C15.1029 17.5933 15.0635 17.6434 15.0129 17.6801C14.9623 17.7169 14.9025 17.7389 14.8401 17.7438C14.7778 17.7487 14.7153 17.7362 14.6596 17.7077L10.0008 15.3574L5.342 17.7078C5.28631 17.7362 5.22382 17.7487 5.16147 17.7439C5.09911 17.739 5.03932 17.717 4.98872 17.6802C4.93812 17.6434 4.89869 17.5934 4.87479 17.5356C4.85089 17.4778 4.84346 17.4145 4.85332 17.3527L5.6489 12.1956L1.97403 8.49101C1.93014 8.44667 1.89931 8.39111 1.8849 8.33041C1.87049 8.26972 1.87306 8.20622 1.89234 8.14689C1.91162 8.08756 1.94685 8.03468 1.99418 7.99405C2.04152 7.95341 2.09912 7.92658 2.16068 7.91651L7.31114 7.07949L9.6988 2.43977C9.72735 2.38427 9.77064 2.33771 9.82392 2.30521C9.87719 2.2727 9.9384 2.2555 10.0008 2.2555C10.0632 2.2555 10.1244 2.2727 10.1777 2.30521C10.231 2.33771 10.2743 2.38427 10.3028 2.43977L12.6905 7.07949L17.8409 7.91651C17.9025 7.92658 17.9601 7.95341 18.0074 7.99405C18.0548 8.03468 18.09 8.08756 18.1093 8.14689C18.1286 8.20622 18.1311 8.26972 18.1167 8.33041C18.1023 8.39111 18.0715 8.44667 18.0276 8.49101L18.0276 8.49105Z" fill="#2F3233"/>
</svg>
