<svg width="24" height="24" viewBox="0 0 24 24" fill="none" xmlns="http://www.w3.org/2000/svg">
<g clip-path="url(#clip0_11133_284861)">
<path d="M5.0258 12.2022L3.92049 14.7897C3.8947 14.8505 3.85194 14.9026 3.79732 14.9398C3.74271 14.9769 3.67855 14.9976 3.61252 14.9993L0.831897 15.2491L2.95158 17.0997C3.05002 17.186 3.08752 17.3163 3.06033 17.4358L2.43408 20.1789L4.84862 18.7352C4.96112 18.6677 5.09705 18.6724 5.20205 18.7352L7.61752 20.1789L7.34237 18.9761C7.57112 19.0019 7.8069 18.985 8.03612 18.9222L8.34924 20.2961C8.35815 20.3557 8.35815 20.4171 8.3483 20.4785C8.3363 20.5524 8.31054 20.6235 8.27237 20.688C8.19225 20.8219 8.06226 20.9185 7.91096 20.9566C7.76612 20.9932 7.60627 20.9739 7.46612 20.8905L5.02533 19.4313L2.60565 20.8788C2.55315 20.913 2.49408 20.9393 2.4308 20.9552L2.38674 20.966C2.31924 20.9782 2.24658 20.9782 2.17346 20.9641L2.15002 20.9599C1.99346 20.9233 1.86549 20.8268 1.78533 20.6993C1.70429 20.5704 1.67623 20.4152 1.70705 20.2661L2.34315 17.4822L0.201897 15.6124C0.145647 15.5632 0.0978346 15.5022 0.0640846 15.4352C0.0325538 15.3736 0.0120864 15.307 0.00361582 15.2383L0.00127207 15.2078C-0.00904043 15.0527 0.0439283 14.9055 0.139085 14.7921C0.233303 14.6796 0.368772 14.6022 0.52346 14.5849L3.36737 14.3313L4.48205 11.7199C4.51165 11.6495 4.55463 11.5855 4.60862 11.5314C4.65268 11.4864 4.70518 11.4485 4.76377 11.4189C4.78487 11.4077 4.80643 11.3983 4.8294 11.3913C4.96815 11.3416 5.11627 11.3486 5.24471 11.4002C5.37362 11.4522 5.48471 11.5497 5.55127 11.6819L6.43346 13.7449L6.17705 14.8666C6.1583 14.8432 6.1433 14.8174 6.13158 14.7897L5.0258 12.2022ZM12.5947 3.86738L14.2803 7.81379L18.5722 8.19816C18.7452 8.2155 18.8952 8.30035 18.9992 8.4241L19.0166 8.44707C19.1089 8.56754 19.1596 8.72035 19.1478 8.88113L19.146 8.90504C19.1375 8.98472 19.1141 9.05925 19.0799 9.12675L19.07 9.14457C19.0391 9.20035 18.9997 9.25191 18.9542 9.29597L15.6889 12.1488L16.6508 16.3591C16.685 16.5264 16.6503 16.6928 16.565 16.8283C16.3747 17.133 15.9683 17.2188 15.6706 17.0243L11.9999 14.8291L8.29861 17.0416C8.15459 17.1254 7.98353 17.1496 7.8219 17.1091C7.48111 17.0233 7.27627 16.6821 7.35268 16.3436L8.3108 12.1488L5.06987 9.31847C5.00636 9.26295 4.95442 9.19546 4.91702 9.11986C4.87962 9.04425 4.85749 8.96201 4.8519 8.87785C4.84112 8.71566 4.89268 8.54738 5.0094 8.41425C5.06799 8.34769 5.1369 8.29566 5.21096 8.25957C5.28737 8.22207 5.37174 8.2005 5.45705 8.19582L9.7194 7.81379L11.4092 3.8566C11.4786 3.69394 11.6085 3.57347 11.7608 3.51254C12.0899 3.37988 12.4578 3.54019 12.5924 3.86129L12.5947 3.86738ZM19.5205 11.7269L20.6324 14.3313L23.4763 14.5849C23.631 14.6022 23.7664 14.68 23.8606 14.7921C23.9558 14.9055 24.0088 15.0527 23.9985 15.2078L23.9961 15.2383C23.9876 15.307 23.9672 15.3736 23.9356 15.4352C23.9019 15.5022 23.8546 15.5627 23.7978 15.6124L21.6566 17.4822L22.2927 20.2661C22.3246 20.4203 22.2927 20.5746 22.2144 20.6993C22.1347 20.8263 22.0063 20.9233 21.8497 20.9599L21.8263 20.9641C21.7531 20.9782 21.681 20.9782 21.613 20.966L21.5689 20.9552C21.5056 20.9393 21.4466 20.9135 21.3941 20.8788L18.9739 19.4313L16.5336 20.8905C16.4675 20.9302 16.3941 20.9565 16.3178 20.9679C16.2414 20.9792 16.1636 20.9754 16.0888 20.9566C15.9435 20.92 15.8108 20.8272 15.7274 20.688C15.688 20.6219 15.6627 20.5507 15.651 20.4794L15.6505 20.4757C15.6406 20.4171 15.6411 20.3566 15.6505 20.2971L15.9641 18.9208C16.0152 18.9349 16.0677 18.9466 16.1202 18.956C16.296 18.9878 16.4774 18.9953 16.6574 18.9752L16.3822 20.1789L18.7972 18.7352C18.9027 18.6724 19.0381 18.6677 19.1506 18.7352L21.5656 20.1789L20.9389 17.4358C20.9122 17.3163 20.9497 17.186 21.0481 17.0997L23.1678 15.2491L20.3872 14.9993C20.3212 14.9976 20.257 14.9769 20.2024 14.9398C20.1478 14.9026 20.105 14.8505 20.0792 14.7897L18.9739 12.2022L17.8691 14.7897C17.8569 14.8183 17.8405 14.845 17.8213 14.8689L17.5653 13.7482L18.4485 11.6819C18.515 11.5497 18.6261 11.4522 18.755 11.4002C18.8839 11.3486 19.0321 11.3416 19.1708 11.3913C19.1938 11.3988 19.2158 11.4082 19.2364 11.4194C19.2955 11.4489 19.3471 11.4869 19.3911 11.5314C19.4455 11.5863 19.4886 11.651 19.5177 11.7199L19.5205 11.7269Z" fill="#317C7A"/>
</g>
<defs>
<clipPath id="clip0_11133_284861">
<rect width="24" height="19" fill="white" transform="translate(0 2.5)"/>
</clipPath>
</defs>
</svg>
