<svg width="24" height="24" viewBox="0 0 24 24" fill="none" xmlns="http://www.w3.org/2000/svg">
<path d="M18.3148 7.7749L18.337 7.79789C18.4425 7.9282 18.5021 8.09693 18.4999 8.27411C18.4976 8.46625 18.4229 8.64629 18.2972 8.77678C18.1721 8.90666 18.007 8.97711 17.8383 8.97932C17.6714 8.98151 17.5066 8.9168 17.3792 8.79302L13.532 4.79917L12.6719 3.90626V5.14604V16.7834C12.6719 16.9793 12.5968 17.1637 12.4686 17.2968C12.341 17.4292 12.172 17.5 12 17.5C11.828 17.5 11.659 17.4292 11.5314 17.2968C11.4032 17.1637 11.3281 16.9793 11.3281 16.7834V5.14604V3.90626L10.468 4.79917L6.62085 8.79302C6.49345 8.91679 6.32865 8.98151 6.16168 8.97932C5.99297 8.97711 5.82787 8.90666 5.70276 8.77678C5.57707 8.64629 5.50239 8.46625 5.50006 8.27411C5.49774 8.08388 5.56662 7.9034 5.6871 7.76975L11.5315 1.70244C11.6587 1.57049 11.827 1.5 11.9985 1.5C12.1698 1.5 12.3382 1.57045 12.4653 1.70233C12.4654 1.70236 12.4654 1.7024 12.4654 1.70244L18.3148 7.7749Z" fill="#317C7A" stroke="#317C7A"/>
<path d="M8 20H16" stroke="#317C7A" stroke-linecap="round"/>
<path d="M11 23H12" stroke="#317C7A" stroke-linecap="round"/>
</svg>
