<svg width="24" height="24" viewBox="0 0 24 24" fill="none" xmlns="http://www.w3.org/2000/svg">
<path d="M9.7994 14.2283H14.1992V7.55834H17.4991L11.9993 2L6.49952 7.55834H9.7994V14.2283ZM22.2708 15.9314C22.0398 15.6824 20.4987 14.016 20.0587 13.5813C19.7504 13.2826 19.3397 13.1161 18.9126 13.1167H16.98L20.3502 16.445H16.452C16.399 16.444 16.3467 16.4572 16.3003 16.4831C16.254 16.5091 16.2152 16.5469 16.188 16.5929L15.2904 18.675H8.70824L7.81067 16.5929C7.78325 16.5471 7.74445 16.5094 7.69814 16.4834C7.65184 16.4575 7.59962 16.4442 7.54668 16.445H3.64842L7.0176 13.1167H5.08607C4.64938 13.1167 4.2325 13.2934 3.93991 13.5813C3.49992 14.0171 1.95888 15.6835 1.72789 15.9314C1.19 16.5106 0.894114 16.9719 1.03491 17.5422L1.65199 20.9595C1.79278 21.5309 2.41206 22 3.02914 22H20.9717C21.5888 22 22.2081 21.5309 22.3489 20.9595L22.9659 17.5422C23.1045 16.9719 22.8097 16.5106 22.2708 15.9314V15.9314Z" fill="#757E7F"/>
</svg>
