<svg width="28" height="29" viewBox="0 0 28 29" fill="none" xmlns="http://www.w3.org/2000/svg">
<g clip-path="url(#clip0_11132_52277)">
<g clip-path="url(#clip1_11132_52277)">
<path d="M13.9223 13.814C16.0223 13.814 17.6556 12.1029 17.6556 10.0029C17.6556 7.90286 15.9445 6.26953 13.8445 6.26953C11.7445 6.26953 10.1111 7.98064 10.1111 10.0029C10.1111 12.1029 11.8223 13.814 13.9223 13.814ZM13.8445 7.82509C13.9223 7.82509 13.9223 7.82509 13.8445 7.82509C15.0889 7.82509 16.1 8.8362 16.1 10.0806C16.1 11.3251 15.0889 12.2584 13.8445 12.2584C12.6 12.2584 11.6667 11.2473 11.6667 10.0806C11.6667 8.8362 12.6778 7.82509 13.8445 7.82509Z" fill="#990099"/>
<path d="M25.4334 13.3487C23.9556 12.0265 22.0111 11.3265 19.9889 11.4043H19.3667C19.2111 12.0265 18.9778 12.571 18.6667 13.0376C19.1334 12.9598 19.5222 12.9598 19.9889 12.9598C21.4667 12.8821 22.9445 13.3487 24.1111 14.2043V19.8043H25.6667V13.5821L25.4334 13.3487Z" fill="#990099"/>
<path d="M18.2 6.42535C18.5889 5.49201 19.6778 5.02535 20.6889 5.41424C21.6223 5.80312 22.0889 6.89201 21.7 7.90312C21.3889 8.60312 20.6889 9.06979 19.9889 9.06979C19.8334 9.06979 19.6 9.06979 19.4445 8.99201C19.5223 9.3809 19.5223 9.76979 19.5223 10.0809V10.5476C19.6778 10.5476 19.8334 10.6253 19.9889 10.6253C21.9334 10.6253 23.4889 9.06979 23.4889 7.20313C23.4889 5.25868 21.9334 3.70312 20.0667 3.70312C18.8223 3.70312 17.7334 4.32535 17.1111 5.41424C17.5 5.64757 17.8889 5.95868 18.2 6.42535Z" fill="#990099"/>
<path d="M9.33337 13.1158C9.02226 12.6491 8.78893 12.1046 8.63337 11.4824H8.01115C5.98893 11.4046 4.04449 12.1046 2.56671 13.3491L2.33337 13.5824V19.8046H3.88893V14.2046C5.13337 13.3491 6.53337 12.8824 8.01115 12.9602C8.47782 12.9602 8.94449 13.038 9.33337 13.1158Z" fill="#990099"/>
<path d="M8.01114 10.5482C8.1667 10.5482 8.32225 10.5482 8.47781 10.4704V10.0037C8.47781 9.61484 8.47781 9.22595 8.55559 8.91484C8.40003 8.99262 8.1667 8.99262 8.01114 8.99262C7.00003 8.99262 6.14448 8.13706 6.14448 7.12595C6.14448 6.11484 7.00003 5.25928 8.01114 5.25928C8.78892 5.25928 9.48892 5.72595 9.80003 6.42595C10.1111 6.03706 10.5778 5.64817 10.9667 5.33706C9.95559 3.70373 7.85559 3.15928 6.22225 4.17039C4.58892 5.1815 4.04448 7.2815 5.05559 8.91484C5.67781 9.92595 6.7667 10.5482 8.01114 10.5482Z" fill="#990099"/>
<path d="M20.3 18.0148L20.1445 17.7814C18.5889 16.0703 16.4111 15.0592 14.0778 15.137C11.7445 15.0592 9.48891 16.0703 7.93336 17.7814L7.7778 18.0148V23.9259C7.7778 24.6259 8.32225 25.2481 9.10002 25.2481H19.0556C19.7556 25.2481 20.3778 24.6259 20.3778 23.9259V18.0148H20.3ZM18.7445 23.6926H9.33336V18.5592C10.5778 17.3148 12.2889 16.6926 14.0778 16.6926C15.7889 16.6148 17.5 17.3148 18.7445 18.5592V23.6926Z" fill="#990099"/>
</g>
</g>
<defs>
<clipPath id="clip0_11132_52277">
<rect width="28" height="28" fill="white" transform="translate(3.05176e-05 0.359375)"/>
</clipPath>
<clipPath id="clip1_11132_52277">
<rect width="28" height="28" fill="white" transform="translate(3.05176e-05 0.359375)"/>
</clipPath>
</defs>
</svg>
