<svg width="24" height="24" viewBox="0 0 24 24" fill="none" xmlns="http://www.w3.org/2000/svg">
<path d="M10.0301 3.65905C10.8861 2.11105 13.1111 2.11105 13.9671 3.65905L21.7131 17.66C22.5431 19.16 21.4581 21 19.7441 21H4.25407C2.53907 21 1.45407 19.16 2.28407 17.66L10.0301 3.66005V3.65905ZM12.9971 17C13.0013 16.8663 12.9786 16.733 12.9303 16.6081C12.8821 16.4833 12.8092 16.3694 12.7161 16.2733C12.6229 16.1772 12.5114 16.1007 12.3882 16.0485C12.2649 15.9963 12.1324 15.9694 11.9986 15.9694C11.8647 15.9694 11.7322 15.9963 11.609 16.0485C11.4857 16.1007 11.3742 16.1772 11.2811 16.2733C11.1879 16.3694 11.1151 16.4833 11.0668 16.6081C11.0185 16.733 10.9958 16.8663 11.0001 17C11.0083 17.2594 11.1171 17.5054 11.3034 17.6859C11.4898 17.8665 11.7391 17.9674 11.9986 17.9674C12.2581 17.9674 12.5073 17.8665 12.6937 17.6859C12.8801 17.5054 12.9889 17.2594 12.9971 17ZM12.7381 9.14705C12.7122 8.95871 12.6157 8.78724 12.4682 8.66732C12.3207 8.5474 12.1331 8.48797 11.9435 8.50105C11.7538 8.51414 11.5762 8.59876 11.4465 8.7378C11.3169 8.87685 11.2449 9.05994 11.2451 9.25005L11.2491 13.751L11.2561 13.853C11.282 14.0414 11.3785 14.2129 11.526 14.3328C11.6735 14.4527 11.861 14.5121 12.0507 14.499C12.2404 14.486 12.418 14.4013 12.5476 14.2623C12.6773 14.1232 12.7493 13.9402 12.7491 13.75L12.7451 9.24805L12.7381 9.14705Z" fill="#EF6C00"/>
</svg>
